<?xml version="1.0" standalone="no"?>
<!DOCTYPE svg PUBLIC "-//W3C//DTD SVG 20010904//EN"
 "http://www.w3.org/TR/2001/REC-SVG-20010904/DTD/svg10.dtd">
<svg version="1.0" xmlns="http://www.w3.org/2000/svg"
 width="406.000000pt" height="478.000000pt" viewBox="0 0 406.000000 478.000000"
 preserveAspectRatio="xMidYMid meet">
<g transform="translate(0.000000,478.000000) scale(0.100000,-0.100000)"
fill="#000000" stroke="none">
<path d="M1787 4763 c-49 -3 -57 -7 -53 -21 2 -9 8 -64 11 -122 5 -73 12 -110
23 -122 14 -17 13 -18 -22 -18 l-37 0 7 -50 c5 -39 4 -50 -7 -50 -8 0 -24 -3
-36 -6 -20 -6 -22 -2 -25 42 -2 27 -7 48 -13 48 -5 -1 -25 -4 -44 -8 -29 -5
-32 -4 -26 12 10 23 10 23 -11 150 -17 104 -21 112 -39 108 -11 -3 -39 -8 -61
-12 -40 -6 -42 -7 -34 -34 7 -25 5 -29 -17 -35 -29 -7 -39 0 -45 30 -2 11 -11
19 -19 17 -7 -2 -53 -13 -101 -25 l-88 -22 6 -32 c4 -20 2 -33 -4 -33 -6 0
-17 -3 -26 -6 -10 -4 -17 2 -22 20 -3 14 -9 26 -12 26 -18 0 -112 -35 -112
-42 0 -21 83 -224 96 -234 21 -16 18 -20 -26 -33 -45 -13 -46 -17 -25 -68 17
-41 18 -38 -12 -47 -20 -6 -25 -2 -39 34 -18 44 -14 43 -78 23 -16 -5 -17 -3
-8 14 9 17 3 40 -34 124 -25 57 -49 107 -53 112 -6 6 -94 -25 -110 -39 -2 -2
1 -15 7 -28 9 -20 7 -25 -13 -34 -19 -9 -24 -7 -34 14 l-11 24 -52 -26 -53
-26 60 -119 c53 -105 63 -118 88 -121 26 -3 35 -16 107 -165 48 -100 74 -163
67 -166 -21 -7 6 -62 29 -60 14 1 26 -12 44 -50 14 -29 24 -61 22 -72 -3 -19
-9 -20 -118 -17 l-115 4 3 -214 3 -213 -21 45 c-12 25 -29 54 -37 64 -14 19
-16 18 -40 -30 -14 -27 -47 -77 -75 -111 -29 -36 -52 -76 -56 -98 -4 -20 -21
-55 -38 -79 -37 -53 -46 -114 -25 -173 17 -49 14 -54 -22 -47 -30 6 -67 -25
-58 -49 2 -7 -1 -21 -8 -30 -24 -34 11 -86 48 -71 13 5 13 -4 1 -68 -8 -40
-14 -77 -14 -83 -1 -24 -50 105 -56 148 -4 26 -12 47 -19 47 -6 0 -33 -30 -58
-68 -52 -75 -72 -143 -83 -293 -5 -68 -3 -93 8 -115 9 -16 26 -54 39 -84 13
-30 39 -71 57 -91 28 -32 30 -38 17 -49 -8 -7 -15 -21 -15 -32 0 -11 -5 -28
-11 -39 -13 -26 12 -69 41 -69 11 0 20 -3 20 -7 1 -5 5 -27 9 -51 8 -42 8 -42
-11 -26 -10 10 -27 32 -38 49 -22 36 -78 70 -152 91 -29 9 -68 24 -87 35 -18
11 -36 18 -38 15 -3 -3 9 -30 26 -61 20 -36 30 -63 26 -76 -4 -10 1 -34 11
-52 9 -17 31 -59 48 -92 17 -33 40 -64 51 -70 11 -5 35 -21 54 -34 18 -13 58
-32 89 -41 l57 -18 -137 -1 c-157 -1 -158 -2 -133 -85 26 -84 29 -193 11 -286
l-18 -85 26 -22 c14 -12 34 -26 43 -32 14 -7 18 -26 20 -98 1 -48 2 -89 3 -91
1 -11 107 58 131 85 33 38 35 51 15 116 l-14 47 33 0 33 0 7 -70 c4 -38 9 -70
12 -70 3 0 23 5 44 12 28 8 38 16 35 27 -3 9 -8 35 -11 59 l-7 42 77 0 c70 0
76 -2 70 -17 -4 -10 -22 -61 -40 -113 -37 -111 -36 -117 33 -199 300 -357 640
-568 1061 -659 118 -25 142 -26 386 -27 272 0 304 3 499 52 334 82 636 271
898 561 131 145 128 137 84 268 -21 60 -40 115 -43 122 -3 9 11 12 52 12 l57
0 -7 -46 c-3 -26 -9 -52 -11 -59 -3 -7 6 -15 23 -19 15 -4 36 -9 45 -12 14 -4
18 6 24 66 l7 70 52 0 53 0 -14 -55 c-12 -46 -13 -60 -2 -83 14 -30 134 -115
150 -106 5 3 6 19 3 36 -4 16 -4 55 0 87 6 52 10 59 41 76 42 22 48 42 33 97
-18 64 -15 231 5 307 9 35 15 70 12 77 -4 11 -39 14 -163 15 l-158 0 57 18
c31 10 71 29 89 42 19 13 43 29 54 34 18 10 63 82 101 163 8 19 12 42 9 53 -4
12 5 37 24 69 42 69 42 84 -3 55 -12 -8 -55 -26 -95 -40 -94 -32 -133 -57
-156 -100 -20 -36 -45 -54 -45 -31 0 41 14 76 30 76 34 0 66 59 40 75 -5 3
-10 17 -10 29 0 13 -7 29 -15 36 -13 11 -9 18 25 57 21 25 46 66 55 91 9 26
21 54 26 62 28 46 29 63 9 195 -10 74 -25 145 -31 157 -26 49 -94 138 -105
138 -6 0 -14 -21 -17 -47 -3 -27 -17 -73 -30 -103 l-24 -55 -13 75 c-7 41 -15
79 -17 84 -3 4 4 5 15 2 27 -9 67 28 56 52 -3 9 -9 28 -12 42 -8 40 -33 62
-63 56 -36 -7 -40 0 -22 42 22 54 13 124 -25 177 -17 24 -34 61 -38 82 -4 24
-27 64 -64 110 -32 39 -63 88 -70 107 -6 20 -16 36 -21 36 -5 0 -20 -22 -34
-49 -13 -27 -30 -53 -36 -56 -8 -6 -8 -2 0 13 7 13 11 89 11 202 l0 182 -123
-4 -124 -3 7 30 c11 47 49 115 65 115 19 0 38 37 31 62 -3 13 23 77 74 179 72
142 82 158 107 161 24 3 35 17 85 113 32 61 57 113 58 117 0 4 -23 19 -50 33
l-50 25 -11 -24 c-10 -21 -14 -23 -36 -13 -16 7 -22 16 -17 26 3 9 8 21 10 26
4 9 -103 62 -109 54 -2 -2 -24 -53 -50 -113 -31 -71 -45 -115 -41 -129 5 -14
3 -19 -7 -15 -56 21 -58 21 -75 -22 -11 -28 -21 -39 -31 -36 -8 3 -19 6 -24 6
-5 0 0 22 11 49 l19 49 -24 6 c-13 3 -37 11 -52 17 -25 10 -26 12 -9 18 13 5
33 44 62 117 24 60 43 114 43 121 1 6 -18 18 -41 26 -24 8 -50 18 -60 22 -12
5 -18 -1 -23 -25 -6 -26 -10 -30 -28 -24 -29 9 -29 8 -18 37 10 25 8 27 -32
37 -61 16 -144 40 -160 46 -10 3 -16 -5 -21 -27 -4 -23 -10 -30 -22 -25 -9 3
-22 6 -30 6 -10 0 -12 8 -8 29 6 27 3 29 -33 35 -21 4 -47 10 -59 12 -19 5
-22 -2 -38 -99 -20 -123 -21 -136 -11 -160 8 -18 -1 -18 -67 0 -14 3 -18 -2
-18 -24 0 -57 -9 -70 -42 -65 -30 5 -30 5 -24 53 l7 49 -42 0 c-40 0 -41 0
-21 18 17 15 21 34 27 140 l7 122 -50 0 c-28 0 -57 3 -66 6 -13 5 -16 -1 -16
-25 0 -27 -4 -31 -26 -31 -23 0 -26 3 -22 30 l5 30 -118 0 -118 0 6 -30 c5
-27 3 -30 -21 -30 -22 0 -26 4 -26 30 0 18 -5 29 -12 28 -7 -1 -39 -3 -71 -5z
m333 -33 c0 -17 -10 -19 -90 -22 -86 -3 -90 -2 -90 18 0 20 5 22 90 22 82 1
90 -1 90 -18z m-270 -10 c0 -16 -7 -20 -35 -20 -19 0 -38 0 -42 -1 -20 -1 -12
30 9 34 54 10 68 7 68 -13z m448 5 c3 -2 2 -10 -1 -17 -3 -9 -18 -12 -46 -10
-33 3 -41 8 -41 24 0 18 4 20 42 14 23 -4 44 -9 46 -11z m-783 -50 c0 -14 -10
-21 -32 -26 -30 -6 -33 -4 -33 17 0 16 7 24 23 27 33 6 42 2 42 -18z m1083 15
c6 0 12 -9 12 -21 0 -15 -4 -19 -16 -15 -9 3 -24 6 -35 6 -13 0 -19 7 -19 21
0 17 4 20 23 15 12 -3 28 -6 35 -6z m-578 -30 c0 -30 -1 -30 -52 -30 -29 0
-77 -3 -105 -6 l-53 -7 0 31 0 31 68 4 c37 2 84 4 105 5 35 2 37 0 37 -28z
m192 20 c25 0 28 -4 28 -31 l0 -32 -52 7 c-29 3 -77 6 -105 6 -53 0 -53 0 -53
31 l0 32 77 -7 c42 -3 89 -6 105 -6z m-422 -14 c0 -8 3 -21 6 -30 4 -11 1 -16
-10 -16 -11 0 -16 9 -16 30 0 17 5 30 10 30 6 0 10 -6 10 -14z m500 -20 c0
-28 -3 -33 -18 -29 -14 3 -17 12 -14 34 6 42 32 38 32 -5z m573 -16 c10 0 17
-8 17 -20 0 -11 -6 -20 -12 -20 -27 1 -153 37 -150 43 1 4 2 13 2 21 0 12 11
11 63 -5 34 -10 70 -19 80 -19z m-1520 11 c4 -16 -7 -22 -72 -39 -42 -11 -77
-20 -77 -19 -1 1 -4 11 -8 22 -5 18 2 22 57 36 83 22 94 22 100 0z m1214 1
c17 -11 4 -62 -16 -62 -13 0 -16 7 -13 35 4 36 9 40 29 27z m-1029 -35 c2 -19
-1 -27 -12 -27 -17 0 -31 34 -21 50 11 18 30 5 33 -23z m1165 5 l79 -17 -6
-29 c-4 -16 -7 -31 -9 -32 -2 -2 -177 37 -185 41 -1 1 1 16 4 34 5 24 11 31
23 26 9 -4 51 -14 94 -23z m-1213 -10 c0 -27 -3 -29 -92 -49 -51 -11 -94 -20
-95 -19 -1 0 -4 13 -8 27 -6 25 -4 26 82 46 116 27 113 27 113 -5z m420 -26
c0 -33 0 -33 -57 -39 -32 -3 -58 -5 -59 -4 0 1 -4 16 -7 34 l-6 32 57 4 c31 2
60 4 65 5 4 1 7 -13 7 -32z m240 -1 l0 -35 -115 0 -115 0 0 35 0 35 115 0 115
0 0 -35z m136 20 c6 -2 9 -17 6 -35 -4 -31 -6 -32 -41 -26 -20 3 -48 6 -63 6
-25 0 -28 4 -28 33 l0 34 58 -4 c31 -3 62 -6 68 -8z m-1192 -21 c4 -9 5 -18 4
-18 -36 -21 -62 -26 -69 -14 -13 21 -11 26 19 36 38 14 39 14 46 -4z m1806
-14 c47 -13 86 -25 88 -25 1 -1 -1 -15 -4 -32 l-6 -30 -96 27 c-54 15 -96 30
-94 34 1 3 2 18 2 32 0 17 5 25 13 22 6 -3 50 -15 97 -28z m153 11 c4 -4 5
-15 1 -24 -5 -13 -10 -14 -32 -5 -37 16 -45 24 -37 38 7 12 53 6 68 -9z
m-1770 -17 c2 -14 0 -27 -7 -29 -45 -15 -168 -46 -171 -43 -1 2 -6 13 -9 25
-6 20 -2 24 51 38 32 9 69 20 83 25 40 14 47 11 53 -16z m267 -8 c0 -8 2 -21
5 -28 4 -11 -8 -17 -49 -24 -59 -11 -66 -7 -66 36 0 14 9 20 33 23 66 8 77 7
77 -7z m1043 8 c37 -7 45 -21 32 -57 -5 -11 -15 -12 -56 -4 -37 7 -49 14 -45
24 4 8 6 21 6 29 0 16 8 17 63 8z m-1165 -46 c-3 -31 -4 -32 -108 -59 -58 -15
-108 -28 -111 -28 -7 -1 -31 50 -26 55 5 5 218 62 235 63 9 1 12 -9 10 -31z
m1341 2 c62 -17 115 -30 116 -30 6 0 -8 -51 -15 -55 -4 -3 -57 8 -116 23 -108
29 -109 29 -112 60 -2 18 0 32 5 32 4 0 59 -14 122 -30z m259 12 c10 -7 10
-15 2 -36 -10 -26 -36 -32 -34 -8 1 7 2 21 3 32 1 22 9 24 29 12z m-1945 -24
c4 -13 1 -26 -6 -30 -14 -9 -22 -1 -32 30 -5 17 -2 22 13 22 12 0 22 -9 25
-22z m1161 16 c21 -5 24 -9 15 -20 -9 -11 -54 -14 -219 -14 -190 0 -208 2
-224 19 -17 18 -13 19 192 20 116 1 222 -1 236 -5z m-1434 -65 c0 -6 -46 -29
-59 -29 -5 0 -11 7 -15 15 -7 19 55 48 66 31 4 -6 8 -14 8 -17z m331 -50 c-51
-18 -57 -16 -66 22 -6 23 -2 26 42 40 l48 14 11 -30 c11 -30 10 -30 -35 -46z
m400 59 c-6 -18 -21 -25 -72 -35 -35 -7 -123 -29 -196 -49 -119 -32 -134 -34
-153 -21 -19 13 -10 17 127 56 165 46 259 69 285 70 14 1 16 -4 9 -21z m1089
2 c47 -11 143 -37 213 -57 114 -32 127 -38 113 -51 -13 -13 -30 -11 -153 21
-76 21 -163 42 -193 49 -50 10 -80 29 -80 50 0 11 4 11 100 -12z m712 -9 c4
-4 4 -12 -1 -19 -6 -9 -15 -10 -39 -1 -35 12 -34 11 -26 33 5 12 11 13 32 4
15 -7 30 -14 34 -17z m-1186 -27 c-1 -30 -4 -34 -27 -34 -15 0 -41 3 -58 6
-27 6 -31 11 -31 38 l0 31 58 -3 58 -4 0 -34z m832 25 c26 -10 26 -10 10 -44
-6 -14 -17 -24 -24 -21 -6 2 -30 10 -52 17 -39 11 -40 13 -30 41 9 26 13 28
42 22 17 -3 41 -10 54 -15z m-1182 -5 c-3 -9 -9 -26 -12 -39 -5 -22 -34 -44
-34 -26 0 5 -3 22 -6 39 -6 31 -5 32 50 41 4 0 5 -6 2 -15z m94 -18 c0 -30 -4
-34 -31 -40 -57 -11 -59 -10 -42 34 14 34 21 40 45 40 25 0 28 -3 28 -34z
m130 5 c0 -24 -5 -29 -31 -35 -57 -11 -79 -8 -79 13 0 11 -3 26 -6 35 -5 14 3
16 55 16 61 0 61 0 61 -29z m213 -12 c16 -41 16 -41 -6 -35 -12 3 -32 6 -44 6
-20 0 -23 5 -23 35 0 32 3 35 28 35 25 0 31 -6 45 -41z m85 26 c2 -2 1 -17 -3
-34 -9 -42 -37 -41 -53 2 -7 18 -12 37 -12 41 0 7 60 -2 68 -9z m-689 -62 c1
-32 -12 -28 -43 11 l-26 35 27 3 c30 3 41 -10 42 -49z m-805 10 c6 -19 0 -25
-40 -42 -26 -12 -48 -20 -49 -19 -8 10 -26 50 -23 52 37 20 95 42 99 37 4 -3
10 -16 13 -28z m1654 30 c-24 -51 -33 -63 -44 -63 -11 0 -11 17 2 58 2 6 13
12 25 12 11 0 19 -3 17 -7z m856 -58 c-11 -34 -19 -36 -66 -15 l-46 20 14 30
15 29 45 -21 c36 -18 43 -26 38 -43z m-1776 25 c12 -16 22 -31 22 -33 0 -9
-93 -18 -100 -10 -5 4 -10 19 -12 33 -3 25 -2 25 63 39 3 0 15 -12 27 -29z
m1008 20 c21 0 24 -3 18 -27 -11 -53 -9 -51 -61 -40 -26 6 -50 12 -51 13 -10
7 44 64 56 59 7 -3 25 -5 38 -5z m-1928 -28 c2 -6 -10 -18 -26 -26 -27 -14
-31 -14 -36 1 -4 9 -5 17 -4 18 32 24 59 27 66 7z m819 -16 l11 -35 -52 -9
c-57 -10 -62 -8 -71 29 -6 24 -3 27 37 36 64 16 64 16 75 -21z m1225 17 c24
-5 29 -10 24 -27 -3 -12 -6 -24 -6 -28 0 -11 -82 -10 -99 1 -9 6 -11 18 -6 41
6 28 10 31 32 25 14 -3 39 -9 55 -12z m782 6 c24 -11 26 -39 2 -39 -21 0 -49
26 -42 38 9 15 9 15 40 1z m-1376 -32 c39 -19 52 -58 52 -152 0 -78 -2 -85
-20 -85 -19 0 -20 7 -20 89 0 82 -2 91 -22 105 -12 9 -36 16 -53 16 -17 0 -41
-7 -53 -16 -20 -14 -22 -23 -22 -109 0 -84 -2 -93 -17 -89 -15 4 -18 17 -17
87 1 112 1 111 30 140 36 37 87 42 142 14z m1322 -2 c28 -14 50 -27 50 -30 0
-11 -24 -55 -29 -53 -3 2 -27 14 -52 27 -45 23 -46 25 -35 52 6 16 12 29 14
29 1 0 25 -11 52 -25z m-2702 -10 c11 -24 9 -26 -37 -49 l-48 -25 -12 25 c-15
34 -16 33 32 54 53 25 52 25 65 -5z m624 5 c0 -11 1 -25 2 -31 1 -6 -20 -20
-47 -30 l-48 -19 -10 27 c-14 36 -9 45 37 59 56 17 64 16 66 -6z m579 -6 c-12
-15 -21 -33 -21 -40 0 -8 -6 -14 -14 -14 -13 0 -28 65 -17 75 2 3 20 5 38 5
l34 0 -20 -26z m285 10 c-3 -9 -6 -27 -6 -40 0 -15 -6 -24 -15 -24 -8 0 -15 6
-15 14 0 7 -9 25 -21 40 l-20 26 41 0 c34 0 41 -3 36 -16z m60 2 c1 0 9 -18
18 -40 14 -34 14 -38 0 -32 -9 3 -28 6 -43 6 -25 0 -26 2 -23 40 4 36 7 40 26
34 11 -4 22 -7 22 -8z m545 -3 c16 -3 29 -12 29 -20 0 -12 -16 -50 -26 -62 -1
-1 -23 7 -49 20 -30 15 -44 28 -40 37 3 7 5 21 5 29 0 11 7 14 26 9 15 -4 39
-10 55 -13z m-1048 -33 c-17 -41 -43 -54 -43 -21 0 11 -3 26 -6 34 -4 11 2 17
18 20 47 9 47 9 31 -33z m90 8 c2 -18 4 -34 3 -34 0 -1 -20 -4 -42 -7 l-42 -5
17 39 c21 51 56 55 64 7z m493 24 c15 -9 6 -72 -11 -72 -6 0 -19 18 -28 40
-15 39 -15 40 6 40 12 0 27 -4 33 -8z m-1479 -31 c9 -25 8 -30 -7 -34 -11 -3
-20 5 -27 24 -6 15 -8 30 -5 33 13 13 28 4 39 -23z m833 5 c0 -13 3 -31 6 -40
12 -31 -31 -16 -53 19 l-21 34 26 4 c15 2 30 5 35 6 4 0 7 -10 7 -23z m716 18
l22 -6 -22 -33 c-21 -35 -64 -50 -52 -19 3 9 6 27 6 40 0 25 9 28 46 18z m825
-7 c-2 -24 -14 -57 -21 -57 -17 0 -20 19 -8 45 10 23 30 31 29 12z m-2020 -27
c6 -16 10 -33 8 -37 -2 -8 -91 -45 -94 -40 -1 1 0 19 3 40 4 32 10 41 36 53
17 7 32 13 34 14 2 0 8 -13 13 -30z m429 -42 c0 -5 -10 -8 -22 -8 -13 0 -33
-3 -44 -6 -19 -5 -22 -1 -26 35 -3 34 0 41 17 44 18 3 74 -45 75 -65z m866 45
c-3 -8 -6 -26 -6 -39 0 -23 -2 -24 -42 -18 -24 4 -45 8 -47 10 -1 1 9 18 23
37 21 27 31 33 52 29 17 -3 23 -9 20 -19z m382 16 c26 -9 31 -16 34 -55 2 -24
3 -44 3 -44 -1 0 -23 8 -51 18 -52 18 -52 18 -33 70 10 26 7 25 47 11z m-2079
-25 c6 -15 10 -28 9 -29 -9 -7 -121 -55 -123 -53 -8 11 -26 50 -23 53 10 8
105 54 114 55 6 0 16 -12 23 -26z m730 -35 c2 -31 -27 -29 -62 6 l-33 33 40 9
c43 9 52 1 55 -48z m1784 35 c29 -15 53 -28 55 -29 3 -3 -15 -42 -23 -53 -2
-2 -114 46 -123 53 -6 5 22 55 30 55 5 0 32 -12 61 -26z m-728 6 c7 0 -3 -16
-21 -34 -48 -48 -74 -38 -57 22 5 20 10 23 36 18 16 -3 35 -6 42 -6z m-1491
-42 c-6 -39 -18 -57 -35 -58 -3 0 -11 16 -16 35 -11 34 -10 36 20 49 18 8 33
15 35 15 1 1 -1 -18 -4 -41z m966 11 c6 -10 10 -49 10 -87 l0 -70 -45 -4 c-50
-4 -65 -1 -65 13 0 6 5 7 12 3 6 -4 8 -3 5 3 -7 11 -9 89 -5 133 5 40 68 47
88 9z m915 15 c26 -11 35 -19 31 -30 -3 -9 -9 -26 -12 -39 -5 -21 -9 -22 -30
-13 -14 7 -24 20 -24 32 0 12 -3 31 -6 44 -7 26 -7 26 41 6z m-1552 -15 c31
-14 42 -35 67 -124 24 -84 24 -95 5 -95 -8 0 -19 17 -25 43 -26 97 -35 119
-54 133 -26 18 -50 18 -86 -1 -41 -21 -45 -48 -21 -135 25 -90 25 -92 4 -88
-11 2 -23 30 -40 91 -21 83 -22 91 -7 122 25 54 100 80 157 54z m1294 -6 c59
-27 67 -63 40 -169 -17 -64 -28 -90 -40 -92 -21 -4 -21 -2 4 88 24 87 20 114
-21 135 -36 19 -60 19 -86 1 -19 -14 -28 -36 -54 -133 -7 -28 -16 -43 -27 -43
-18 0 -15 22 17 132 16 52 27 71 48 82 36 20 76 20 119 -1z m-1868 -26 c-15
-33 -127 -82 -165 -73 -23 6 -14 12 73 55 54 27 99 47 101 46 1 -1 -2 -14 -9
-28z m1031 0 l0 -34 -77 -11 c-43 -6 -79 -9 -80 -8 -2 2 4 19 12 39 14 35 17
36 72 40 32 2 61 4 66 5 4 1 7 -13 7 -31z m351 23 c47 0 49 -2 64 -37 8 -20
14 -37 12 -39 -1 -1 -37 2 -80 8 l-77 11 0 35 c0 27 3 33 16 28 9 -3 38 -6 65
-6z m-1566 -60 c-10 -16 -19 -11 -32 17 -10 21 -10 28 -1 35 15 8 43 -36 33
-52z m2618 15 c48 -22 87 -43 87 -47 0 -5 -15 -8 -32 -7 -47 0 -140 49 -150
77 -4 13 -4 22 0 20 5 -2 48 -21 95 -43z m127 21 c0 -7 -6 -21 -14 -32 -22
-28 -41 -6 -25 29 11 25 39 27 39 3z m-2168 -8 c-7 -7 -12 -24 -12 -39 0 -15
-7 -29 -15 -32 -17 -7 -20 -2 -29 39 -6 28 -4 32 26 41 37 11 47 8 30 -9z
m471 5 c-11 -32 -15 -34 -29 -16 -19 26 -17 33 11 33 19 0 23 -4 18 -17z m647
10 c-1 -14 -28 -44 -32 -36 -18 33 -17 43 7 43 14 0 25 -3 25 -7z m487 -30 c2
-6 -1 -22 -6 -36 -13 -35 -41 -25 -41 13 0 16 -4 32 -10 35 -5 3 -10 10 -10
15 0 11 63 -15 67 -27z m-1187 -4 c12 -16 21 -31 19 -33 -7 -5 -160 -28 -164
-24 -2 2 -5 17 -7 33 -3 29 -2 30 57 41 33 7 63 12 67 13 4 1 16 -13 28 -30z
m830 12 c32 -7 35 -10 32 -37 -2 -16 -5 -30 -6 -32 -3 -3 -159 20 -165 24 -2
2 7 16 18 33 23 32 19 32 121 12z m-1543 -25 c14 -47 -3 -52 -44 -16 l-32 29
27 10 c39 14 38 14 49 -23z m2188 24 l26 -10 -36 -31 c-20 -18 -38 -29 -41
-26 -5 5 16 77 22 77 2 0 14 -4 29 -10z m-1959 -46 c5 -28 3 -31 -32 -42 -21
-6 -39 -10 -41 -9 -1 2 0 20 4 41 4 26 13 40 27 46 26 10 34 3 42 -36z m245
-12 c7 -20 12 -38 11 -39 -1 -2 5 -20 12 -41 14 -38 13 -38 -15 -51 -16 -7
-34 -9 -40 -5 -7 4 -9 3 -5 -4 4 -6 -1 -10 -13 -9 -11 1 -18 3 -16 5 2 2 -3
22 -11 45 -8 23 -12 47 -9 55 2 7 0 10 -5 7 -6 -4 -9 7 -8 28 2 19 6 33 11 30
4 -2 7 1 7 7 0 16 43 30 57 18 7 -5 17 -26 24 -46z m1279 23 c10 -12 10 -24 0
-63 -7 -26 -16 -51 -19 -57 -3 -5 -5 -19 -6 -29 0 -11 -6 -21 -14 -24 -8 -2
-11 0 -8 5 4 6 -9 10 -29 11 -41 2 -57 9 -48 24 4 6 9 25 11 42 2 17 7 32 13
34 5 2 6 10 3 19 -4 10 -2 14 4 10 7 -5 9 0 6 12 -6 25 33 54 57 41 9 -5 22
-16 30 -25z m206 17 c6 -4 14 -24 17 -45 5 -32 3 -38 -9 -33 -9 3 -27 9 -40
12 -25 6 -28 14 -18 52 6 22 29 29 50 14z m316 -60 c-9 -20 -17 -38 -18 -40
-1 -2 -67 25 -82 34 -2 2 11 16 29 32 28 25 37 28 61 20 l27 -10 -17 -36z
m-2341 24 l28 -24 -27 -10 c-15 -6 -34 -13 -43 -16 -23 -10 -49 51 -28 65 23
14 39 11 70 -15z m200 -18 c-7 -52 -26 -59 -44 -16 -13 32 -13 33 12 45 38 17
38 17 32 -29z m1896 30 c29 -13 29 -14 16 -45 -21 -52 -35 -45 -47 25 -6 37
-8 36 31 20z m-1097 -38 c0 -36 -2 -40 -25 -40 -17 0 -25 6 -25 18 0 9 -3 27
-6 40 -6 19 -3 22 25 22 30 0 31 -2 31 -40z m326 18 c-3 -13 -6 -31 -6 -40 0
-12 -8 -18 -25 -18 -22 0 -25 4 -25 40 0 38 1 40 31 40 28 0 31 -3 25 -22z
m-394 -22 c4 -33 3 -34 -41 -40 -24 -3 -45 -5 -46 -4 -1 2 -5 17 -8 35 -7 34
0 38 64 42 23 1 27 -3 31 -33z m476 28 c29 -6 31 -9 25 -38 -3 -17 -7 -32 -8
-34 -1 -1 -22 1 -46 4 -44 6 -45 7 -41 40 4 36 12 39 70 28z m995 -6 c12 -7
23 -14 25 -15 2 0 -4 -15 -12 -32 -14 -26 -19 -29 -40 -21 -13 5 -27 6 -30 3
-12 -12 -6 18 9 47 18 34 18 34 48 18z m-2485 -23 c16 -34 16 -32 -17 -43 -25
-9 -30 -7 -40 14 -15 34 -14 42 7 47 33 9 39 7 50 -18z m230 -17 c17 -40 -13
-47 -50 -11 l-29 28 28 12 c31 12 34 11 51 -29z m672 23 c0 -11 3 -26 6 -35 4
-11 -4 -16 -33 -21 -21 -4 -45 -9 -54 -11 -12 -3 -18 4 -23 27 -7 39 -6 40 41
49 59 12 63 11 63 -9z m688 9 c42 0 53 -12 46 -48 -5 -24 -11 -31 -23 -28 -9
2 -32 7 -51 10 -34 6 -36 8 -32 42 3 26 8 34 19 30 8 -3 27 -6 41 -6z m681
-12 c9 -2 2 -13 -21 -30 -43 -33 -60 -25 -41 20 11 26 17 31 31 24 9 -5 23
-11 31 -14z m-1829 -10 c0 -7 3 -23 6 -35 4 -16 2 -23 -8 -23 -8 0 -43 -11
-78 -25 -35 -14 -65 -23 -68 -20 -2 2 -1 20 2 39 6 31 12 36 64 54 68 24 82
26 82 10z m342 -23 c4 -32 -5 -45 -32 -45 -6 0 -30 52 -30 66 0 1 10 5 23 7
12 2 25 5 28 6 4 0 9 -15 11 -34z m926 20 c5 -4 -21 -65 -28 -65 -27 0 -36 13
-32 45 4 32 6 34 31 29 14 -4 27 -8 29 -9z m358 -6 c58 -20 62 -24 68 -57 3
-20 4 -37 2 -39 -1 -2 -31 8 -66 22 -35 14 -70 25 -78 25 -10 0 -12 7 -8 23 3
12 6 28 6 35 0 16 5 16 76 -9z m-1912 -18 l29 -30 -34 -14 c-32 -13 -36 -12
-62 10 -16 12 -34 23 -40 24 -11 0 19 17 34 18 4 1 12 -13 19 -29 16 -38 25
-33 10 4 -10 27 -6 46 9 46 4 0 20 -13 35 -29z m2176 15 c0 -8 -22 -66 -25
-66 -2 0 -16 5 -31 10 l-27 11 23 24 c19 21 60 35 60 21z m45 -26 c3 -5 -1
-10 -9 -10 -9 0 -21 -9 -28 -20 -20 -32 -31 -23 -11 10 18 30 37 38 48 20z
m-2105 -30 l0 -31 -24 18 -24 18 21 12 c12 7 23 12 25 13 1 0 2 -14 2 -30z
m1914 17 c16 -12 16 -14 -2 -30 -19 -17 -20 -17 -24 13 -5 33 0 36 26 17z
m-594 -25 c150 -28 380 -91 505 -141 167 -66 279 -121 269 -131 -7 -7 -50 8
-125 44 -377 178 -829 263 -1209 227 -270 -26 -569 -107 -820 -220 -128 -59
-133 -60 -140 -46 -5 13 199 104 347 155 147 51 371 106 503 125 156 21 518
14 670 -13z m-1516 -4 c14 -13 41 -58 60 -100 28 -62 32 -77 20 -82 -10 -4
-26 18 -54 73 -30 61 -45 80 -65 85 -14 4 -30 4 -35 1 -8 -5 -30 24 -30 39 0
3 18 6 39 6 27 0 48 -7 65 -22z m2389 16 c15 -16 -15 -43 -51 -46 -35 -3 -39
-7 -74 -73 -21 -38 -39 -74 -41 -80 -3 -6 -9 -6 -16 1 -16 15 57 165 91 188
22 16 79 22 91 10z m-2239 -33 l28 -29 -47 -21 c-26 -12 -49 -21 -50 -21 -4 0
-26 63 -23 65 2 1 17 10 33 18 17 9 30 16 31 17 0 0 13 -13 28 -29z m241 -1
c4 -16 7 -32 8 -36 1 -3 -15 -12 -35 -19 -36 -12 -37 -12 -47 18 -6 16 -11 32
-11 33 0 4 61 32 72 33 3 1 9 -12 13 -29z m1549 15 c39 -16 41 -21 27 -58 -9
-24 -11 -25 -48 -12 -21 7 -37 16 -36 19 1 4 4 20 8 36 4 17 8 30 10 30 1 0
19 -7 39 -15z m294 -21 c4 -3 -27 -64 -32 -64 -2 0 -27 10 -54 23 l-50 23 31
26 c31 24 33 25 67 9 19 -8 36 -16 38 -17z m-1238 -18 c0 -25 -28 -36 -96 -36
-29 0 -34 3 -34 24 0 22 5 25 48 29 26 2 55 4 65 5 12 1 17 -5 17 -22z m140
-1 c0 -24 -2 -25 -65 -25 -63 0 -65 1 -65 25 0 24 2 25 65 25 63 0 65 -1 65
-25z m146 9 c-3 -9 -6 -20 -6 -25 0 -6 -27 -9 -62 -7 -57 3 -63 5 -66 26 -3
21 0 22 68 22 62 0 71 -2 66 -16z m110 6 c30 0 34 -3 34 -25 0 -22 -4 -25 -34
-25 -69 0 -96 11 -96 38 0 22 3 24 31 18 17 -3 47 -6 65 -6z m-1089 -30 c11
-29 10 -31 -24 -45 -20 -9 -37 -14 -38 -13 -8 10 -25 48 -25 57 0 9 42 28 65
30 6 1 16 -13 22 -29z m1732 19 c24 -9 31 -16 25 -28 -3 -9 -9 -24 -11 -34 -4
-12 -11 -16 -22 -11 -9 3 -24 9 -33 11 -19 6 -21 15 -12 51 7 25 10 26 53 11z
m-1185 -15 c11 -28 7 -32 -41 -38 -27 -4 -55 -9 -64 -12 -12 -3 -18 3 -21 21
-4 20 -1 26 16 30 11 2 30 6 41 8 42 9 63 6 69 -9z m697 6 c13 0 19 -7 19 -23
0 -13 -2 -26 -5 -28 -2 -3 -32 -1 -65 5 -54 9 -60 12 -60 34 0 24 2 24 46 18
26 -3 55 -6 65 -6z m-1586 -10 c24 -9 26 -12 14 -27 -12 -15 -12 -16 3 -10 13
4 15 2 11 -10 -5 -12 -3 -14 7 -8 8 5 11 4 7 -2 -4 -6 0 -14 8 -17 8 -3 14 -9
13 -13 -1 -4 3 -18 10 -29 9 -18 9 -24 -3 -34 -11 -9 -18 -9 -30 4 -9 9 -14
16 -10 16 3 0 -3 10 -15 22 -13 15 -17 25 -10 32 16 16 12 26 -7 19 -10 -3
-15 -3 -11 2 4 4 4 13 -1 19 -10 14 -22 46 -16 46 2 0 16 -5 30 -10z m2402 -5
c5 -4 2 -4 -6 0 -11 6 -13 4 -8 -9 5 -13 3 -17 -6 -13 -8 3 -14 -1 -14 -9 0
-7 5 -11 10 -7 5 3 4 -4 -3 -16 -6 -12 -15 -19 -20 -16 -5 3 -7 -4 -5 -15 2
-12 -5 -30 -16 -41 -11 -11 -17 -24 -14 -28 3 -5 -6 -4 -19 2 -19 9 -22 15
-15 29 5 10 14 18 20 18 6 0 7 -5 3 -12 -4 -7 -3 -8 5 -4 9 6 9 11 1 21 -7 8
-9 19 -5 26 6 8 10 7 17 -2 5 -9 6 -4 2 14 -5 21 -1 32 15 46 11 10 18 20 16
23 -3 2 4 4 15 3 11 -1 23 -5 27 -10z m-2152 -26 c9 -17 15 -32 13 -33 -2 -1
-15 -7 -31 -14 -26 -11 -28 -10 -40 21 -14 32 -10 38 40 56 1 1 10 -13 18 -30z
m498 9 c4 -12 5 -24 2 -26 -5 -6 -136 -34 -139 -30 -2 1 -6 12 -10 24 -6 19 0
23 61 37 38 8 71 15 74 16 4 1 9 -9 12 -21z m960 2 c45 -9 57 -15 57 -30 0
-10 -4 -21 -8 -24 -12 -7 -142 24 -142 34 0 20 14 41 24 37 6 -3 37 -10 69
-17z m444 8 c15 -7 29 -13 31 -14 2 -1 -4 -16 -12 -33 -15 -28 -18 -30 -44
-19 -15 7 -29 13 -31 15 -4 3 19 63 25 63 2 0 16 -5 31 -12z m-907 -44 c0 -23
-3 -24 -60 -24 -57 0 -60 1 -60 24 0 27 24 34 88 27 26 -3 32 -8 32 -27z
m-1063 -16 c10 -22 9 -27 -7 -31 -25 -6 -51 50 -29 64 16 9 21 5 36 -33z m923
17 c0 -14 -6 -25 -14 -25 -7 0 -33 -3 -58 -6 -43 -6 -45 -5 -50 20 -3 14 -3
28 0 31 3 3 32 5 64 5 55 0 58 -1 58 -25z m280 -5 c0 -33 -5 -34 -82 -24 -40
6 -45 10 -45 30 0 23 3 24 63 24 l64 0 0 -30z m837 -20 c-12 -33 -15 -34 -36
-21 -12 8 -12 14 -1 40 10 25 15 29 30 21 16 -8 17 -14 7 -40z m-1632 19 c9
-26 8 -27 -60 -46 -49 -14 -58 -14 -66 -2 -17 27 -9 35 49 51 74 21 70 21 77
-3z m377 -4 c5 -22 1 -25 -31 -30 -20 -3 -48 -8 -63 -10 -16 -3 -28 -1 -28 3
0 4 -3 17 -6 29 -5 19 -1 22 33 26 88 9 90 8 95 -18z m565 11 c1 0 -1 -13 -4
-29 -5 -25 -8 -27 -42 -22 -90 15 -88 14 -83 41 5 25 6 26 66 19 33 -4 62 -8
63 -9z m331 -6 c46 -12 51 -16 46 -34 -9 -30 -6 -29 -73 -10 -44 12 -61 21
-61 34 0 20 10 32 24 27 6 -2 35 -10 64 -17z m-1036 -24 c5 -23 1 -26 -56 -38
-63 -14 -76 -10 -76 23 0 12 14 20 48 27 73 15 79 14 84 -12z m798 12 c48 -11
51 -13 45 -37 -8 -33 -6 -32 -46 -22 -19 5 -46 12 -60 15 -22 5 -25 10 -21 31
5 29 11 29 82 13z m-1176 -30 c7 -28 3 -32 -63 -53 -45 -15 -55 -15 -62 -4
-16 26 -9 34 49 55 74 28 69 27 76 2z m1598 -44 c-6 -28 -7 -28 -72 -4 -61 23
-65 26 -54 54 5 13 14 12 67 -8 49 -19 61 -27 59 -42z m-1360 32 c5 -23 0 -26
-60 -41 -53 -13 -67 -14 -73 -3 -17 26 -8 35 44 50 74 22 84 21 89 -6z m1101
3 c28 -7 37 -14 33 -25 -3 -9 -6 -22 -6 -29 0 -11 -7 -12 -27 -5 -16 5 -46 14
-69 20 -37 9 -41 13 -36 36 5 28 12 28 105 3z m-483 1 c287 -21 570 -94 855
-222 81 -37 80 -36 72 -44 -3 -3 -45 12 -94 34 -656 294 -1260 294 -1916 0
-49 -22 -91 -38 -93 -35 -22 22 324 154 538 206 178 43 256 54 483 69 11 1 81
-3 155 -8z m-768 -42 c3 -20 -6 -26 -57 -45 -32 -12 -60 -21 -62 -19 -1 1 -4
13 -5 25 -3 20 5 26 47 42 66 23 73 23 77 -3z m1369 6 c30 -9 55 -17 57 -19 1
-1 -2 -14 -7 -28 l-10 -26 -61 21 c-45 15 -60 24 -56 35 3 8 6 19 6 24 0 12 8
12 71 -7z m266 -40 c1 -5 -1 -15 -6 -23 -8 -13 -16 -12 -53 4 -56 24 -61 29
-54 53 7 20 7 20 58 -2 29 -13 53 -27 55 -32z m-1863 29 c8 -20 2 -26 -55 -51
l-47 -20 -11 24 c-10 22 -8 26 17 35 15 6 36 15 47 19 31 13 42 12 49 -7z
m1031 7 c-2 -3 13 -6 33 -7 48 -2 142 -12 167 -18 11 -2 37 -9 58 -14 20 -5
37 -7 37 -4 0 3 6 0 13 -6 8 -6 17 -8 20 -5 3 3 30 -2 59 -12 29 -9 54 -15 54
-13 1 2 12 -5 25 -16 12 -11 19 -14 14 -6 -5 8 -4 12 1 9 29 -18 91 -41 106
-39 9 1 20 -4 24 -10 5 -9 2 -10 -9 -6 -10 3 -17 2 -17 -3 0 -13 23 -13 37 1
7 7 14 6 24 -3 8 -7 21 -13 29 -13 8 0 14 -5 13 -12 -2 -7 3 -10 11 -7 7 3 38
-6 69 -20 30 -13 59 -21 63 -18 4 4 3 -1 -3 -11 -9 -17 -37 -18 -481 -18 -293
0 -472 -4 -472 -9 0 -6 80 -10 200 -10 l200 0 0 -637 0 -636 -137 6 c-75 4
-225 7 -335 7 -191 0 -198 1 -198 20 0 19 7 20 246 20 168 0 243 -3 239 -10
-5 -7 -84 -10 -236 -8 -126 2 -229 0 -229 -5 0 -4 106 -6 235 -5 150 2 237 -1
240 -7 3 -5 3 5 0 24 -4 28 -3 32 9 22 11 -9 16 -9 22 0 4 7 3 9 -4 5 -6 -3
-13 -2 -17 4 -3 5 -17 10 -31 10 -14 0 -23 4 -19 9 3 5 1 13 -5 16 -6 4 -9 1
-8 -7 2 -7 -4 -13 -12 -13 -8 0 -16 8 -18 19 -3 13 0 16 10 11 11 -7 11 -6 0
6 -11 12 -15 11 -26 -3 -17 -23 -81 -25 -90 -3 -5 14 28 19 118 18 17 0 17 1
2 12 -14 10 -16 35 -16 165 0 138 2 155 21 181 l20 29 -20 0 c-14 0 -21 6 -21
20 0 11 6 20 14 20 9 0 13 10 12 25 -1 23 -2 24 -15 8 -12 -17 -13 -16 -8 5 3
12 1 22 -4 22 -5 0 -9 -6 -9 -12 0 -10 -3 -9 -9 1 -5 7 -14 10 -21 6 -8 -5
-11 2 -9 27 4 50 -14 65 -70 58 -25 -3 -66 -2 -91 1 l-45 7 45 0 c122 0 133 2
122 15 -12 14 -18 229 -8 246 5 8 -13 11 -58 11 -36 0 -66 2 -66 4 0 2 -3 11
-6 20 -5 14 4 16 60 16 52 0 64 -3 60 -14 -6 -16 19 -16 33 -1 4 4 2 5 -6 0
-10 -6 -12 -2 -6 14 6 20 3 21 -79 21 -47 0 -88 -4 -91 -10 -3 -5 -1 -10 5
-10 6 0 8 -4 5 -10 -3 -5 -2 -10 3 -10 6 0 10 -55 10 -127 1 -101 -2 -132 -16
-155 -9 -15 -20 -28 -24 -28 -4 0 -8 -16 -8 -35 0 -21 -5 -35 -12 -35 -9 0 -8
-4 2 -10 13 -8 12 -10 -2 -10 -10 0 -18 5 -18 10 0 6 -8 10 -18 10 -13 0 -22
-13 -31 -49 -19 -74 -8 -87 66 -81 l58 4 -60 7 -60 6 52 1 c49 2 56 5 94 47
l42 46 24 -22 c12 -13 20 -25 17 -28 -3 -3 -10 2 -15 12 -6 9 -16 17 -23 17
-16 0 -63 -60 -60 -77 1 -7 2 -19 3 -25 1 -7 6 -3 12 10 5 13 13 20 19 17 6
-4 -1 -19 -16 -38 -22 -29 -30 -32 -70 -29 -56 5 -57 20 -2 24 23 2 43 8 45
13 4 13 -99 7 -112 -7 -7 -8 -6 -9 2 -4 8 4 11 -43 11 -184 0 -173 -5 -219
-23 -190 -3 5 -16 10 -28 9 -20 -1 -20 -2 3 -9 24 -8 23 -8 -7 -9 -18 -1 -32
-4 -32 -8 1 -5 1 -23 0 -40 l-1 -33 -90 0 -90 0 0 641 0 642 61 -7 c34 -3 136
-6 225 -6 153 0 205 -9 133 -24 -27 -5 -30 -8 -19 -21 14 -17 40 -20 40 -5 0
5 -7 6 -17 3 -11 -4 -14 -3 -9 5 4 7 14 12 23 12 11 0 14 -7 11 -25 -3 -14 -2
-25 1 -25 4 0 5 -17 3 -38 -3 -28 -8 -39 -20 -39 -23 0 -32 16 -32 60 0 20 -4
37 -10 37 -5 0 -10 10 -11 23 0 12 -3 16 -6 9 -2 -6 -10 -9 -16 -5 -7 3 -4 -3
6 -14 9 -11 14 -23 10 -26 -3 -4 -1 -7 5 -7 6 0 9 -13 7 -30 -2 -16 0 -30 5
-30 23 0 7 -19 -17 -22 -21 -2 -29 -9 -31 -28 -2 -14 -9 -32 -15 -40 -10 -13
-10 -13 4 -3 8 7 55 13 110 15 90 3 93 4 64 17 -28 14 -29 15 -7 18 12 3 22 9
22 14 0 5 -10 8 -22 6 -18 -1 -23 3 -25 23 0 14 -2 27 -3 30 -1 3 -3 22 -6 43
-3 31 -1 37 16 37 11 0 20 5 20 11 0 6 -8 8 -19 4 -14 -4 -21 0 -25 13 -5 13
-19 21 -44 25 -20 3 -249 4 -509 2 -304 -3 -474 -1 -478 6 -4 5 -3 9 2 8 4 -1
30 7 56 19 27 12 53 22 58 22 5 0 9 5 9 11 0 5 5 7 10 4 6 -4 18 -1 27 7 14
11 16 11 8 -2 -7 -12 -5 -12 11 1 23 19 127 59 154 59 11 0 20 5 20 11 0 6 6
9 14 6 7 -3 17 -2 22 2 15 13 75 31 69 21 -7 -12 -3 -12 19 -4 9 3 14 10 11
14 -3 5 4 6 15 3 11 -3 26 -1 33 5 15 12 79 25 133 27 22 1 46 5 53 9 6 4 53
9 103 11 50 3 93 6 95 9 6 5 242 2 238 -4z m748 -70 c5 -4 4 -17 -2 -28 l-11
-20 -52 20 c-29 11 -54 21 -56 23 -2 1 0 14 3 28 l7 26 51 -20 c29 -11 56 -24
60 -29z m-1689 24 c9 -25 7 -34 -8 -34 -8 0 -34 -9 -59 -19 l-45 -19 -10 23
c-10 21 -7 24 41 43 64 25 73 26 81 6z m-214 -15 c7 -11 10 -22 8 -23 -2 -1
-22 -11 -46 -21 -37 -16 -45 -17 -53 -4 -14 22 -11 27 29 48 47 25 49 25 62 0z
m2054 1 c43 -18 45 -21 35 -44 l-11 -24 -42 21 c-22 11 -43 22 -44 23 -5 3 8
44 13 44 2 0 24 -9 49 -20z m-1974 -41 c7 -11 10 -22 8 -23 -2 -1 -34 -15 -71
-31 -57 -23 -70 -26 -78 -14 -13 22 -8 27 56 58 73 36 72 36 85 10z m1926 -12
c55 -29 61 -34 53 -54 l-8 -22 -68 30 c-82 37 -76 33 -68 58 8 27 18 26 91
-12z m15 -134 c13 -16 12 -17 -3 -4 -14 11 -18 11 -18 1 0 -8 -3 -11 -6 -7 -5
5 3 27 10 27 2 0 10 -8 17 -17z m-1461 -653 l0 -640 -420 0 -420 0 0 640 0
640 420 0 420 0 0 -640z m1721 310 c1 -176 2 -327 2 -335 0 -8 -1 -150 -2
-315 l-1 -300 -420 0 -420 0 0 271 0 270 33 -25 c19 -15 39 -26 46 -26 7 0 10
-3 8 -7 -3 -5 30 -9 73 -11 83 -4 136 11 176 49 l21 20 -1 -45 c-1 -26 -5 -42
-11 -38 -5 3 -4 -1 3 -10 11 -14 10 -17 -6 -22 -11 -4 -31 -2 -46 4 -52 19
-56 15 -56 -54 0 -36 4 -67 9 -70 4 -3 27 2 50 11 23 9 44 13 48 9 4 -4 6 -22
4 -41 -3 -52 -3 -104 0 -165 l4 -55 43 -3 c23 -2 42 0 43 5 1 4 3 26 5 48 2
22 7 59 10 82 4 28 1 52 -9 72 -9 17 -11 31 -6 31 6 0 8 4 4 9 -10 18 34 22
64 7 48 -25 51 -22 51 54 0 73 -2 76 -46 60 -46 -18 -62 -5 -66 53 -3 51 -2
52 26 54 16 1 31 5 33 7 3 3 24 88 47 189 22 101 46 190 52 198 6 8 10 22 9
32 -2 9 3 17 10 17 7 0 11 -10 10 -25 -2 -14 1 -25 6 -25 6 0 7 -6 2 -12 -4
-7 -8 -95 -8 -195 l0 -183 41 0 40 0 -33 148 c-18 81 -32 165 -31 187 3 36 6
40 33 45 27 5 30 9 33 48 2 25 -1 42 -7 42 -6 0 -11 -4 -11 -9 0 -16 -40 -23
-55 -11 -12 10 -29 9 -80 -4 -35 -9 -76 -16 -90 -16 -24 0 -25 3 -25 55 0 42
-6 63 -22 85 -12 17 -25 30 -29 30 -17 0 -42 -58 -45 -103 -4 -71 -10 -74
-106 -54 -51 11 -85 14 -92 8 -15 -13 -49 -8 -54 7 -9 28 -22 8 -22 -33 0 -41
2 -45 25 -45 14 0 25 -5 25 -11 0 -11 -67 -310 -76 -341 -3 -11 -15 -18 -30
-18 l-24 0 0 360 0 360 420 0 420 0 1 -320z m-425 153 c10 -14 13 -89 14 -345
l0 -328 -30 0 -30 0 0 326 c0 351 6 399 46 347z m-816 -13 c0 -16 -7 -20 -33
-20 -23 0 -34 5 -34 15 0 8 4 15 9 15 4 0 8 -4 8 -10 0 -5 10 -9 23 -9 20 1
20 2 2 7 l-20 5 20 8 c11 4 21 8 23 8 1 1 2 -8 2 -19z m-90 -10 c12 -8 11 -10
-7 -10 -13 0 -23 5 -23 10 0 13 11 13 30 0z m638 -115 c1 -1 0 -10 -4 -19 -6
-16 -43 -23 -45 -8 0 4 -2 15 -4 24 -3 15 2 17 23 12 15 -4 28 -8 30 -9z m42
-205 l0 -220 41 0 c34 0 39 3 35 18 -20 65 -66 299 -65 329 1 21 3 29 6 18 3
-11 20 -83 38 -160 18 -77 36 -155 40 -172 5 -24 12 -33 27 -33 37 0 0 -29
-60 -46 -66 -19 -121 -14 -187 18 -42 20 -44 23 -24 28 22 5 27 22 66 193 23
103 44 193 46 200 13 32 -8 -113 -34 -236 -16 -76 -29 -142 -29 -147 0 -6 16
-10 35 -10 l35 0 1 78 c0 42 2 104 4 137 1 33 3 97 4 143 1 47 5 82 11 82 6 0
10 -80 10 -220z m106 203 c60 -5 61 -6 60 -34 -1 -26 -5 -29 -34 -29 -34 0
-100 30 -114 52 -13 21 -9 31 10 23 9 -4 44 -9 78 -12z m298 -5 c-3 -13 -7
-23 -8 -24 -115 -48 -141 -49 -141 -4 0 28 2 30 40 31 22 1 51 5 65 9 44 14
52 12 44 -12z m114 0 c-3 -26 -36 -37 -49 -16 -16 24 -13 27 44 37 5 0 7 -9 5
-21z m-1110 5 c-15 -2 -42 -2 -60 0 -18 2 -6 4 27 4 33 0 48 -2 33 -4z m-1387
-40 c35 -56 39 -87 32 -207 -5 -94 -9 -113 -27 -130 -12 -12 -34 -38 -50 -59
-26 -36 -100 -97 -116 -97 -12 0 -19 26 -14 47 3 10 30 31 59 47 33 17 63 42
76 62 11 19 24 32 27 30 4 -2 8 16 9 40 1 26 -2 42 -7 39 -6 -4 -10 -13 -10
-22 0 -37 -43 -100 -86 -126 -50 -30 -74 -36 -54 -12 17 21 50 87 50 101 0 7
19 26 42 41 40 27 62 63 39 63 -6 0 -11 -6 -11 -14 0 -16 -17 -31 -47 -40 -21
-7 -21 -5 -11 31 6 21 28 57 49 80 22 24 39 48 39 55 0 6 -22 -13 -50 -43 -39
-43 -48 -49 -43 -29 3 14 12 30 20 37 8 6 10 14 5 17 -20 12 -35 -28 -43 -117
-4 -51 -15 -105 -23 -122 -9 -16 -16 -36 -16 -42 0 -7 -5 -13 -11 -13 -12 0
-8 93 6 125 8 18 7 18 -8 6 -23 -18 -31 -70 -18 -116 10 -37 5 -95 -8 -95 -13
0 -31 66 -31 111 0 34 8 58 35 99 19 30 35 64 35 76 0 21 42 86 86 133 13 14
28 38 35 53 6 15 13 28 14 28 2 0 13 -17 26 -37z m2735 5 c9 -18 27 -44 39
-58 40 -44 75 -102 75 -125 0 -12 13 -40 29 -62 33 -46 52 -102 44 -135 -11
-48 -25 -88 -31 -88 -12 0 -30 69 -19 73 5 1 12 25 14 53 4 40 1 54 -16 74
-11 14 -20 20 -21 13 0 -6 5 -15 10 -18 6 -3 10 -31 10 -61 0 -30 -4 -54 -10
-54 -5 0 -10 6 -10 13 0 6 -7 26 -16 42 -9 17 -18 66 -21 115 -3 49 -11 95
-20 108 -21 33 -28 20 -9 -17 25 -48 19 -47 -31 9 -26 29 -49 47 -51 41 -2 -7
17 -34 42 -61 25 -27 46 -58 46 -69 0 -11 3 -27 6 -36 5 -13 0 -12 -30 6 -20
11 -36 27 -36 35 0 8 -4 14 -10 14 -16 0 -12 -26 8 -43 9 -8 29 -20 45 -26 15
-6 27 -18 27 -26 0 -9 11 -38 25 -65 14 -27 25 -52 25 -55 0 -3 -18 4 -39 15
-47 24 -77 60 -93 111 -6 22 -15 39 -20 39 -5 0 -7 -9 -4 -20 3 -11 9 -30 12
-42 12 -40 44 -74 100 -104 35 -19 57 -37 61 -52 8 -35 -9 -47 -43 -29 -31 16
-104 90 -104 106 0 5 -12 18 -27 29 -28 20 -28 21 -33 165 -3 80 -3 144 -1
142 5 -6 36 35 44 58 9 24 14 22 33 -15z m-1326 -83 l0 -105 -55 0 -55 0 0
105 0 105 55 0 55 0 0 -105z m642 55 c18 -11 47 -20 63 -20 l30 0 0 -165 0
-165 -25 0 c-23 0 -27 6 -38 58 -8 31 -27 112 -43 180 -16 67 -29 125 -29 127
0 9 9 5 42 -15z m304 -52 c-8 -34 -27 -116 -41 -180 -25 -111 -28 -118 -51
-118 l-24 0 0 165 c0 164 0 165 23 165 12 0 40 9 62 19 22 10 41 17 43 16 2
-2 -3 -32 -12 -67z m-316 -290 c0 -5 -11 -8 -25 -8 l-25 0 1 118 1 117 23
-110 c13 -60 24 -113 25 -117z m-100 97 l0 -105 -26 0 c-20 0 -25 4 -20 17 4
9 14 56 24 105 9 48 18 88 20 88 1 0 2 -47 2 -105z m543 -77 c7 -25 5 -28 -18
-28 l-25 0 1 108 1 107 17 -80 c10 -44 21 -92 24 -107z m-1138 70 c-7 -34 -25
-62 -25 -40 0 8 -12 10 -35 7 -34 -4 -35 -3 -35 30 l0 35 51 0 51 0 -7 -32z
m115 -1 c0 -33 -1 -33 -42 -33 -47 1 -58 9 -58 44 0 20 5 22 50 22 50 0 50 0
50 -33z m-1413 -49 c-3 -8 -6 -5 -6 6 -1 11 2 17 5 13 3 -3 4 -12 1 -19z
m1258 -28 c-13 -14 -31 -20 -62 -20 -36 0 -43 3 -43 20 0 18 7 20 62 20 60 0
61 0 43 -20z m205 0 c0 -17 -7 -20 -43 -20 -31 0 -49 6 -62 20 -18 20 -17 20
43 20 55 0 62 -2 62 -20z m-1472 -344 c-3 -4 -5 -2 -5 5 1 8 -2 35 -6 62 -9
50 -30 64 -42 26 -4 -11 -42 -58 -85 -104 -53 -56 -82 -96 -91 -124 -7 -22
-20 -48 -29 -56 -16 -15 -16 -11 -4 62 24 142 45 209 68 219 25 11 33 49 15
70 -6 8 -10 16 -8 17 2 2 23 15 46 29 22 15 63 55 90 90 l48 63 5 -175 c3 -96
2 -179 -2 -184z m2677 284 c27 -37 72 -76 123 -106 2 -1 -2 -11 -9 -22 -15
-24 1 -72 24 -72 9 0 22 -36 40 -107 25 -107 39 -183 33 -183 -2 0 -14 26 -26
58 -16 39 -44 79 -90 127 -37 39 -75 85 -84 103 -9 18 -23 32 -29 29 -7 -2
-19 -36 -27 -75 l-15 -72 0 194 c0 214 -2 210 60 126z m-1534 33 c-11 -5 -11
-7 0 -14 11 -7 10 -9 -5 -9 -12 0 -16 5 -12 16 3 9 6 21 6 27 0 7 5 6 13 -2
10 -11 9 -14 -2 -18z m304 -53 c26 0 45 -3 42 -6 -4 -4 -27 -7 -52 -7 -40 0
-52 5 -84 37 -37 36 -37 36 -56 16 -10 -11 -23 -20 -28 -20 -6 0 2 14 18 30
l29 30 41 -40 c36 -36 46 -40 90 -40z m10 17 l50 -3 -54 -2 c-53 -2 -91 15
-91 41 0 6 10 1 23 -11 14 -14 39 -22 72 -25z m-230 23 c-3 -5 -19 -10 -36
-10 -16 0 -29 5 -29 10 0 6 16 10 36 10 21 0 33 -4 29 -10z m130 -41 c4 -11
10 -17 15 -14 5 3 11 1 15 -5 3 -5 24 -10 46 -10 22 0 39 -5 39 -11 0 -7 -17
-10 -44 -8 -27 3 -42 0 -39 -6 3 -5 -7 5 -22 23 -15 19 -39 38 -52 43 -21 8
-23 12 -13 24 11 14 15 14 31 -1 10 -9 21 -25 24 -35z m115 41 c0 -5 -13 -10
-29 -10 -17 0 -33 5 -36 10 -4 6 8 10 29 10 20 0 36 -4 36 -10z m-130 -69 c5
-11 10 -29 10 -40 0 -17 -6 -21 -34 -21 -39 0 -60 18 -46 40 6 8 10 11 10 5 0
-5 7 1 16 13 19 27 30 28 44 3z m-1566 -34 c7 -11 7 -20 0 -27 -15 -15 -49 13
-41 34 8 20 26 17 41 -7z m3099 17 c20 -7 10 -41 -15 -47 -24 -7 -35 17 -18
38 14 17 13 17 33 9z m-3167 -19 c7 -18 -12 -45 -32 -45 -15 0 -28 35 -19 50
9 15 45 12 51 -5z m3252 -13 c4 -28 -24 -40 -45 -19 -21 21 -9 49 19 45 15 -2
24 -11 26 -26z m-1710 2 c7 -2 11 -9 10 -16 -2 -9 14 -14 55 -16 51 -3 57 -1
57 17 0 23 18 32 43 19 12 -6 17 -5 17 4 0 9 3 9 10 -2 7 -11 10 -11 10 -2 0
7 5 10 10 7 6 -4 10 -63 10 -144 l0 -138 -30 5 c-34 5 -93 -16 -84 -29 6 -11
-6 -15 -58 -23 -29 -4 -38 -1 -38 10 0 10 5 12 13 8 8 -5 8 -3 -2 9 -11 14
-11 17 0 21 43 14 44 14 27 15 -15 1 -18 12 -19 74 -1 39 -3 82 -4 95 -2 19 2
22 31 22 24 0 34 -5 34 -15 0 -8 6 -15 13 -16 10 0 10 -2 0 -6 -9 -3 -13 -29
-13 -78 0 -50 -4 -75 -12 -78 -7 -2 -1 -6 15 -9 l27 -5 1 91 c1 50 1 95 0 100
-1 4 5 19 14 32 16 25 8 33 -12 13 -19 -19 -83 -21 -110 -4 -14 9 -28 13 -31
9 -4 -4 -1 -9 6 -11 8 -3 12 -36 12 -116 l0 -112 -45 0 -44 0 -3 141 -3 141
40 -4 c22 -3 46 -6 53 -9z m811 -5 c46 -16 43 -54 -5 -74 -20 -8 -38 -15 -40
-15 -2 0 -4 23 -4 50 0 54 2 55 49 39z m141 -29 l0 -40 -50 0 -50 0 0 40 0 40
50 0 50 0 0 -40z m92 -10 c3 -55 -1 -58 -47 -32 -38 21 -40 53 -5 69 42 20 48
16 52 -37z m-2533 6 c9 -11 10 -20 1 -35 -12 -24 -15 -25 -41 -11 -22 12 -25
30 -7 48 16 16 33 15 47 -2z m51 -15 c0 -17 -18 -41 -31 -41 -6 0 -4 24 7 58
5 18 24 5 24 -17z m3084 23 c19 -7 21 -35 4 -52 -16 -16 -23 -15 -42 4 -12 12
-13 20 -6 35 11 20 19 23 44 13z m-3209 -44 c-1 -8 -9 -16 -17 -18 -20 -4 -40
21 -33 41 8 20 54 -1 50 -23z m3147 10 c3 -16 1 -30 -3 -30 -14 0 -31 30 -25
45 9 25 23 17 28 -15z m138 -16 c-15 -17 -36 -18 -46 -3 -4 7 4 20 17 30 21
15 25 16 32 3 5 -9 4 -21 -3 -30z m-3211 -45 c-12 -23 -45 -25 -53 -3 -10 27
-7 30 29 26 30 -4 33 -6 24 -23z m2409 24 c-10 -2 -28 -2 -40 0 -13 2 -5 4 17
4 22 1 32 -1 23 -4z m742 -17 c0 -22 -22 -36 -42 -25 -28 15 -22 36 12 37 18
0 30 -4 30 -12z m-3292 -119 c26 -55 30 -69 43 -152 16 -104 18 -125 10 -129
-4 -3 -8 10 -9 27 -2 17 -7 36 -13 42 -7 7 -8 -3 -3 -31 4 -26 1 -57 -7 -80
l-12 -39 -13 47 c-9 35 -9 69 -1 135 5 48 10 101 10 116 0 30 -18 56 -30 44
-4 -4 -1 -13 5 -19 7 -7 12 -26 12 -42 0 -28 -4 -24 -31 32 -17 34 -35 62 -40
62 -10 0 -2 -23 28 -75 15 -26 23 -57 23 -88 0 -45 -1 -47 -21 -35 -11 7 -23
25 -26 40 -3 15 -9 25 -14 23 -16 -10 1 -50 32 -76 19 -15 30 -33 28 -45 -3
-24 11 -104 23 -126 16 -31 -8 -20 -44 21 -37 40 -62 116 -54 159 3 12 1 22
-5 22 -13 0 -11 -80 2 -121 7 -19 31 -54 55 -79 40 -41 44 -51 44 -94 l0 -49
25 26 c21 20 28 43 40 121 8 53 22 110 30 126 9 17 13 35 10 41 -4 5 -2 8 3 7
15 -4 51 41 74 92 11 25 51 78 89 118 38 39 69 77 69 82 0 6 4 10 8 10 5 0 15
-31 22 -70 13 -67 12 -74 -18 -197 l-32 -128 -80 -76 c-44 -43 -93 -80 -107
-84 -15 -3 -38 -18 -52 -33 -14 -15 -31 -26 -38 -24 -8 2 -10 -3 -7 -13 3 -8
12 -15 19 -15 19 0 36 -25 29 -44 -3 -9 -16 -16 -29 -16 -18 0 -22 4 -18 19 5
21 -14 64 -25 57 -17 -10 -122 135 -122 167 0 7 -9 30 -21 51 -20 38 -20 40
-4 160 18 132 30 168 72 220 l27 35 12 -40 c7 -22 21 -59 32 -82z m3456 77
c37 -59 50 -106 66 -237 12 -97 11 -109 -4 -125 -9 -10 -16 -25 -16 -33 0 -27
-48 -116 -79 -148 -17 -17 -31 -37 -31 -42 0 -6 -6 -9 -14 -6 -8 3 -17 1 -20
-6 -2 -7 -5 -4 -5 7 -1 12 4 16 14 12 12 -4 15 4 15 42 0 43 4 52 45 92 48 47
65 88 65 158 0 61 -15 51 -17 -12 0 -29 -8 -66 -16 -82 -21 -41 -73 -88 -81
-75 -4 6 -3 11 3 11 5 0 13 32 17 71 6 63 11 75 40 105 34 34 42 58 24 69 -6
3 -10 -4 -10 -17 0 -13 -12 -31 -25 -41 l-25 -18 0 48 c0 31 7 60 21 82 28 46
41 81 30 81 -5 0 -23 -28 -40 -62 -28 -58 -31 -60 -31 -31 0 17 5 35 10 38 6
3 10 11 10 17 0 6 -7 5 -16 -3 -16 -13 -16 -40 1 -194 2 -16 -1 -54 -7 -83
l-11 -53 -15 33 c-8 21 -11 49 -8 76 4 27 2 41 -4 37 -6 -3 -10 -18 -10 -33 0
-20 -3 -23 -9 -13 -6 10 -5 27 5 49 8 19 14 58 14 86 0 36 9 70 30 113 16 35
32 79 36 98 3 19 9 35 13 35 3 -1 19 -21 35 -46z m-896 24 c6 -7 13 -29 16
-48 11 -61 -32 -110 -69 -80 -17 14 -20 92 -5 121 12 22 42 25 58 7z m513 -51
c-6 -6 -11 -15 -11 -21 0 -5 6 -2 13 7 11 16 17 13 66 -36 30 -30 62 -72 70
-94 9 -21 28 -55 43 -74 43 -55 59 -104 64 -198 l5 -86 -21 50 c-12 29 -20 73
-20 105 0 57 -25 120 -50 128 -8 3 -5 -8 8 -30 14 -22 22 -52 22 -79 l0 -44
-16 30 c-41 73 -53 105 -68 175 -17 73 -40 115 -58 104 -4 -3 0 -13 11 -22 11
-9 22 -27 26 -39 4 -15 -8 -7 -46 29 -28 27 -54 46 -57 43 -4 -4 14 -26 40
-49 26 -24 56 -63 67 -89 l20 -46 -27 10 c-15 6 -35 20 -44 32 -14 17 -18 18
-18 6 0 -21 28 -46 62 -54 16 -4 31 -18 37 -33 6 -15 25 -49 41 -75 29 -47 29
-48 8 -42 -52 16 -96 55 -123 110 -31 62 -44 67 -25 9 17 -50 85 -117 136
-132 34 -10 44 -19 64 -62 21 -45 24 -48 37 -32 13 16 13 16 11 -3 -2 -15 2
-19 15 -17 18 3 18 3 0 -21 -11 -16 -21 -21 -25 -14 -4 6 -4 15 -1 21 3 5 1 6
-5 2 -6 -4 -17 2 -24 14 -7 11 -19 20 -26 20 -33 0 -192 141 -184 163 1 5 -1
6 -6 3 -11 -6 -66 217 -67 269 0 22 6 59 14 82 l14 42 20 -25 c14 -19 17 -28
8 -37z m-2951 17 c0 -1 -6 -31 -14 -66 -14 -59 -24 -132 -25 -185 -1 -13 -5
-23 -9 -23 -14 0 -14 134 -1 215 10 63 14 72 30 68 11 -3 19 -7 19 -9z m3189
-189 c0 -101 -13 -98 -24 5 -6 62 -20 135 -31 172 -3 10 2 18 13 20 24 5 42
-77 42 -197z m-287 -55 c11 -52 26 -104 32 -115 19 -35 151 -154 187 -169 19
-8 42 -23 52 -34 16 -17 16 -20 2 -25 -8 -4 -15 -15 -15 -25 0 -10 -9 -27 -20
-37 -27 -24 -25 -41 6 -70 31 -29 47 -116 24 -130 -9 -5 -11 -4 -6 3 4 6 -9
35 -29 63 -19 28 -35 58 -35 65 0 8 -33 49 -72 92 -40 43 -82 95 -93 115 -30
56 -33 53 -53 -46 -4 -21 -7 74 -7 210 0 136 1 237 3 223 2 -14 12 -68 24
-120z m-1392 115 c0 -11 -12 -15 -45 -15 -33 0 -45 4 -45 15 0 11 12 15 45 15
33 0 45 -4 45 -15z m930 6 c0 -6 -16 -9 -35 -8 -46 3 -46 17 0 17 19 0 35 -4
35 -9z m-2177 -389 c-1 -327 6 -502 23 -545 3 -9 -24 -12 -101 -12 l-104 0 37
39 c20 21 50 51 66 66 23 21 33 45 52 126 41 181 12 450 -37 332 -7 -18 -45
-67 -84 -108 -39 -41 -78 -91 -85 -110 -15 -39 -58 -100 -70 -100 -5 0 -7 18
-6 40 2 29 10 45 30 61 31 24 33 53 6 76 -11 10 -20 25 -20 35 0 9 -7 21 -16
26 -13 7 -12 11 8 24 13 8 42 25 64 36 23 12 75 54 116 95 l75 73 23 112 c13
62 24 112 24 112 1 0 0 -170 -1 -378z m2175 350 c2 -8 -7 -12 -27 -12 -28 0
-46 11 -36 22 10 10 59 2 63 -10z m-750 1 c-10 -2 -26 -2 -35 0 -10 3 -2 5 17
5 19 0 27 -2 18 -5z m10 -20 c-64 -2 -172 -2 -240 0 -68 1 -15 3 117 3 132 0
187 -2 123 -3z m1149 -460 c-2 -208 -9 -394 -14 -413 l-9 -35 -249 -3 -250 -2
35 19 c26 14 39 16 50 8 12 -9 13 -8 4 1 -8 10 -5 25 13 60 20 38 23 55 17 87
-4 22 -7 51 -7 65 0 14 -1 20 -4 13 -3 -8 -11 -5 -24 8 -19 19 -27 45 -11 35
5 -3 9 1 9 9 0 8 -3 15 -6 15 -3 0 -7 25 -8 55 -2 34 1 55 8 55 7 0 8 -12 4
-32 l-6 -33 15 25 c8 14 12 36 10 50 -2 14 -6 61 -8 105 -2 44 -7 89 -11 99
-5 12 -5 17 2 13 5 -3 10 0 10 8 0 13 -2 13 -16 1 -9 -8 -27 -16 -41 -18 -24
-3 -25 -7 -30 -77 l-5 -74 -46 -4 -45 -4 0 65 c1 35 4 62 8 60 4 -2 10 0 13 6
4 6 3 10 -2 9 -20 -3 -23 2 -12 22 6 12 7 19 1 15 -5 -3 -12 1 -16 9 -5 13
-42 15 -249 15 -265 0 -275 -2 -265 -55 3 -13 1 -22 -3 -19 -5 3 -5 -5 -1 -18
10 -26 9 -74 -1 -84 -10 -10 -59 5 -52 16 3 6 2 10 -4 10 -6 0 -8 7 -5 15 4
10 13 14 28 9 21 -6 21 -6 -1 10 -12 9 -25 32 -29 51 -5 28 -12 37 -38 44 -17
4 -36 4 -42 0 -6 -5 -15 -5 -20 -1 -5 4 -6 3 -2 -2 4 -5 4 -14 -2 -21 -5 -6
-12 -30 -16 -53 -5 -35 -4 -42 10 -42 9 0 16 -8 16 -18 0 -25 -39 -65 -57 -58
-8 3 -11 1 -8 -5 8 -12 -40 -7 -52 6 -4 4 -3 5 4 1 6 -3 14 -2 17 3 4 5 -7 7
-25 4 -22 -3 -29 -1 -24 7 4 7 -4 4 -19 -5 -14 -10 -26 -19 -26 -20 0 -2 23
-17 50 -35 28 -18 48 -35 45 -38 -7 -7 25 -42 38 -42 6 0 2 7 -9 15 -10 8 -14
15 -7 15 24 0 53 -42 36 -53 -5 -2 -3 -3 4 -1 16 4 22 -30 9 -47 -8 -11 -33
-14 -103 -13 -52 1 -91 -2 -87 -7 3 -5 -2 -6 -10 -3 -18 7 -20 21 -16 115 1
42 -2 69 -10 74 -8 5 -8 11 2 23 12 16 11 16 -6 2 -18 -14 -19 -13 -13 3 6 15
4 16 -16 3 -22 -14 -74 -19 -92 -8 -14 9 -45 10 -40 2 5 -9 -55 -20 -107 -20
-20 0 -39 4 -43 10 -3 5 -13 6 -23 3 -15 -6 -16 -5 -2 13 14 17 14 18 -2 6
-10 -8 -19 -9 -22 -3 -3 5 -3 11 1 14 5 2 2 2 -4 1 -14 -4 -60 53 -55 67 1 5
-1 8 -5 7 -5 -1 -29 18 -54 42 -46 45 -103 90 -112 90 -3 0 -8 -12 -11 -26 -5
-18 -11 -24 -23 -20 -13 5 -14 4 -4 -8 8 -9 8 -16 2 -20 -17 -11 -53 -92 -49
-112 2 -11 15 -21 35 -25 23 -4 30 -3 26 7 -5 14 26 34 52 34 13 0 16 -7 13
-29 -2 -17 -1 -28 3 -25 12 7 21 -33 14 -58 -4 -16 -3 -19 3 -10 6 9 11 -8 14
-52 3 -36 13 -77 22 -91 9 -14 13 -25 9 -25 -5 0 -2 -4 6 -9 20 -13 30 -127
10 -116 -11 6 -11 5 -2 -5 12 -14 10 -28 -15 -77 l-17 -33 -237 0 c-217 0
-237 1 -242 18 -19 63 -26 188 -26 480 l0 332 1281 0 1281 0 -5 -377z m402
146 c1 -9 -5 -21 -11 -27 -10 -8 -14 1 -15 36 -2 26 -5 63 -7 82 -4 27 -1 22
14 -20 10 -30 19 -62 19 -71z m-3319 101 c0 -5 -4 -10 -9 -10 -5 0 -13 -30
-18 -67 -10 -63 -10 -65 -12 -22 -1 49 15 109 30 109 5 0 9 -4 9 -10z m842
-69 c20 -12 53 -43 72 -69 86 -117 133 -139 254 -120 53 8 79 8 97 0 15 -7 26
-8 30 -2 9 14 52 12 62 -2 4 -7 8 -50 8 -96 0 -69 -2 -79 -13 -65 -7 9 -12 38
-11 63 2 53 -8 90 -24 90 -20 0 -16 -220 4 -250 12 -19 14 -34 6 -79 -5 -31
-16 -63 -24 -71 -13 -13 -15 -13 -10 5 3 11 9 40 12 66 6 43 5 48 -47 113
l-53 68 -50 -8 c-27 -5 -80 -8 -117 -8 -38 1 -68 -2 -68 -5 -4 -50 -20 -156
-29 -188 -12 -45 -36 -62 -25 -18 3 14 7 54 7 88 1 50 -4 73 -26 115 -18 35
-27 67 -27 99 0 42 -9 81 -42 173 -6 19 -15 25 -38 25 -17 0 -29 -4 -27 -10 2
-5 -5 -18 -15 -27 -12 -12 -18 -14 -18 -5 0 9 -3 8 -9 -2 -5 -8 -11 -9 -15 -3
-3 6 -2 13 4 17 6 4 8 11 5 16 -4 5 10 33 29 62 20 30 36 60 36 67 0 11 3 10
13 -2 6 -8 29 -25 49 -37z m1441 40 c4 0 7 -22 5 -48 l-3 -48 -225 -3 c-124
-1 -234 0 -246 2 -17 5 -20 12 -18 45 1 21 4 43 7 48 5 8 437 11 480 4z m-595
-23 c25 -25 14 -43 -28 -43 -30 0 -40 4 -40 15 0 21 20 40 40 40 9 0 21 -5 28
-12z m776 -17 c3 -5 -8 -11 -24 -13 -29 -4 -37 1 -23 15 9 10 41 9 47 -2z
m-754 -56 c0 -11 -12 -15 -50 -15 -38 0 -50 4 -50 15 0 11 12 15 50 15 38 0
50 -4 50 -15z m764 -1 c5 -13 3 -14 -6 -7 -7 6 -21 9 -30 8 -10 -2 -18 1 -18
6 0 16 48 10 54 -7z m-2164 -89 c12 -56 10 -69 -18 -184 -34 -134 -31 -129
-157 -254 -16 -16 -23 -26 -15 -22 9 5 12 4 7 -1 -7 -7 -77 -7 -85 1 -1 1 2
14 9 27 7 16 30 33 65 47 29 13 66 37 80 54 31 37 57 94 51 110 -3 7 -10 -1
-16 -18 -23 -59 -64 -105 -109 -125 -55 -25 -67 -25 -46 -2 34 38 62 92 83
158 18 58 29 76 74 116 28 25 48 50 44 54 -4 5 -11 4 -15 -2 -4 -6 -26 -27
-49 -48 -33 -29 -40 -33 -36 -16 3 11 14 27 25 34 11 8 15 17 10 20 -15 9 -41
-21 -47 -52 -15 -77 -48 -178 -66 -200 -10 -14 -19 -31 -19 -38 0 -7 -4 -16
-10 -19 -18 -11 -1 86 21 122 14 23 17 34 9 31 -26 -8 -50 -71 -50 -133 -1
-33 -7 -71 -14 -84 -8 -14 -12 -30 -9 -37 3 -8 -5 -11 -20 -10 -19 1 -24 6
-21 20 4 22 14 35 14 18 0 -7 4 -12 8 -12 5 0 7 24 4 53 -6 72 11 127 57 178
21 24 42 55 46 69 9 32 42 75 104 139 27 28 53 61 57 73 9 29 19 10 34 -67z
m2769 -31 c27 -24 53 -59 68 -93 14 -30 38 -71 55 -90 17 -19 37 -49 44 -67
15 -35 18 -136 5 -168 -9 -24 -31 67 -31 132 0 48 -29 112 -51 112 -5 0 -1
-13 10 -28 11 -16 23 -53 26 -83 l7 -54 -36 62 c-20 34 -44 92 -52 130 -21 90
-33 120 -50 127 -8 3 -14 1 -14 -4 0 -6 4 -10 8 -10 9 0 35 -50 30 -56 -2 -1
-25 18 -51 43 -26 25 -51 42 -55 39 -3 -4 17 -28 45 -54 48 -43 95 -122 73
-122 -20 0 -60 24 -60 37 0 7 -5 13 -11 13 -26 0 0 -37 38 -54 24 -12 48 -32
57 -50 33 -64 56 -100 68 -108 27 -17 -13 -8 -51 12 -45 22 -85 67 -107 119
-9 20 -18 31 -21 24 -5 -15 39 -103 63 -125 11 -9 45 -28 77 -42 31 -14 57
-29 57 -35 0 -5 3 -16 6 -25 9 -22 -43 -21 -76 2 -49 33 -140 134 -146 160 -3
15 -14 63 -26 106 -24 94 -26 143 -9 214 l13 52 27 -39 c14 -22 46 -57 70 -77z
m-789 12 l0 -94 -67 -17 c-74 -19 -276 -31 -346 -21 -43 7 -45 9 -55 49 -6 23
-14 72 -18 110 l-7 67 247 0 246 0 0 -94z m-588 62 c2 -17 12 -24 44 -31 36
-7 42 -12 46 -37 l4 -29 -79 -3 c-106 -4 -112 -13 -69 -109 36 -82 32 -109
-18 -109 -25 0 -30 4 -30 25 0 16 6 25 15 25 19 0 19 5 -1 64 -15 43 -25 54
-93 97 -75 49 -84 64 -17 32 29 -13 39 -14 65 -4 39 17 63 44 65 75 1 22 6 26
33 26 25 0 32 -5 35 -22z m768 -38 l0 -50 -85 0 c-68 0 -85 3 -85 14 0 11 15
16 53 18 51 3 52 4 55 36 3 28 7 32 33 32 28 0 29 -1 29 -50z m-2512 -16 c4
-29 -23 -51 -43 -34 -18 15 -19 32 -3 48 18 18 42 10 46 -14z m3338 -4 c-1
-35 -29 -42 -45 -12 -12 22 3 42 30 42 12 0 16 -8 15 -30z m58 24 c21 -8 21
-50 0 -58 -9 -4 -23 -1 -30 5 -17 14 -18 46 -1 52 6 3 13 6 14 6 1 1 8 -2 17
-5z m-3296 -79 c4 -15 -12 -34 -29 -35 -3 0 -4 14 -1 30 5 33 25 36 30 5z
m3184 -5 c3 -20 0 -30 -8 -30 -15 0 -28 35 -19 50 11 19 23 10 27 -20z m-3310
-4 c13 -19 9 -26 -16 -26 -23 0 -41 23 -31 40 7 11 37 1 47 -14z m77 9 c2 -2
1 -11 -3 -20 -9 -25 -50 -15 -54 14 -3 21 -1 23 25 16 15 -3 30 -8 32 -10z
m2437 -55 c1 -39 0 -70 -1 -70 -1 0 -17 7 -34 16 -21 11 -47 15 -72 11 l-39
-5 0 59 0 59 73 0 72 0 1 -70z m872 48 c-4 -28 -51 -33 -56 -6 -3 15 5 19 51
27 5 0 7 -9 5 -21z m70 0 c-2 -16 -11 -24 -30 -26 -22 -3 -26 0 -21 17 4 17
17 26 46 30 5 0 7 -9 5 -21z m-1565 -85 c13 -46 23 -83 22 -83 -2 0 -19 7 -39
15 -29 12 -45 13 -73 6 -20 -6 -38 -9 -39 -8 -14 13 -63 142 -57 148 9 9 157
17 160 9 2 -3 13 -42 26 -87z m1769 65 c-13 -22 -18 -43 -15 -61 4 -19 -2 -39
-19 -65 -14 -20 -30 -54 -37 -74 -7 -21 -23 -43 -36 -50 -12 -7 -43 -26 -68
-41 -25 -15 -56 -30 -69 -32 -38 -7 -69 -28 -64 -42 3 -7 -1 -13 -9 -13 -20 0
-19 29 0 36 8 4 15 12 15 19 0 22 34 42 85 50 42 6 57 14 93 51 26 28 40 50
35 57 -4 7 -6 21 -5 32 2 18 1 18 -10 4 -7 -9 -25 -18 -40 -21 -27 -5 -27 -5
-13 23 8 15 34 38 57 51 23 12 43 28 46 35 2 7 -17 1 -42 -13 -25 -14 -46 -21
-46 -15 0 5 8 14 17 20 10 5 15 12 11 16 -10 11 -50 -35 -44 -51 3 -9 1 -12
-4 -9 -6 3 -10 -3 -10 -15 0 -23 -21 -59 -63 -109 l-29 -34 7 34 c4 19 16 44
28 57 11 12 16 22 10 22 -18 0 -43 -36 -49 -71 -7 -42 -24 -79 -37 -79 -14 0
3 82 23 111 15 21 16 29 7 40 -10 11 -9 11 5 0 14 -10 21 -7 50 25 68 76 91
94 131 105 23 6 56 17 72 24 17 8 31 14 33 14 2 1 -5 -14 -16 -31z m-3834 -4
c40 -12 66 -27 89 -53 69 -76 86 -91 96 -84 5 3 7 1 3 -5 -3 -6 2 -17 11 -24
19 -13 22 -21 29 -73 2 -16 6 -40 8 -53 3 -12 1 -20 -4 -17 -5 3 -10 -1 -12
-9 -2 -11 -11 -11 -51 -1 -71 18 -151 78 -180 133 -13 26 -32 62 -42 80 -9 19
-14 43 -11 56 3 13 -1 31 -9 42 -19 25 -19 38 0 30 9 -3 41 -13 73 -22z m3220
-183 c8 -35 25 -58 86 -117 49 -48 66 -70 50 -63 -14 5 -57 9 -95 9 -63 0 -72
-3 -95 -27 -15 -16 -21 -29 -14 -31 7 -3 7 -8 2 -15 -5 -7 -19 -46 -32 -87
-28 -95 -68 -172 -120 -235 -36 -42 -41 -54 -37 -82 5 -30 -1 -41 -60 -108
-271 -307 -646 -464 -1052 -441 -364 20 -652 152 -933 423 -83 81 -96 98 -89
116 11 29 5 41 -52 112 -47 58 -127 192 -108 181 5 -3 24 -32 41 -64 27 -48
90 -135 110 -152 3 -3 16 -21 28 -41 26 -43 153 -166 237 -230 321 -242 742
-339 1111 -254 378 86 689 328 860 668 50 99 85 193 78 212 -3 8 -1 15 5 15
25 0 45 113 45 255 l0 140 12 -70 c7 -38 17 -90 22 -114z m-2970 144 c-2 -14
-11 -20 -28 -20 -17 0 -26 6 -28 20 -2 16 3 20 28 20 25 0 30 -4 28 -20z
m3312 10 c0 -5 -5 -17 -10 -25 -7 -12 -13 -12 -27 -4 -31 19 -28 41 7 40 16
-1 30 -5 30 -11z m-1045 -58 c-11 -6 -31 -23 -45 -39 l-24 -28 -168 0 -168 0
-10 26 c-6 14 -10 27 -10 29 0 1 19 -2 43 -7 58 -14 237 -3 322 19 73 19 94
19 60 0z m-2274 -17 c1 -16 2 -44 3 -61 0 -17 -3 -33 -8 -36 -5 -4 -6 -1 -2 5
3 6 1 16 -6 24 -7 7 -14 18 -14 23 -1 6 -4 25 -7 43 -6 27 -4 32 13 32 15 0
20 -7 21 -30z m1341 -17 c6 -8 4 -10 -10 -6 -15 3 -18 11 -13 31 4 23 6 24 9
7 2 -11 8 -25 14 -32z m633 37 c3 -5 1 -10 -4 -10 -6 0 -11 5 -11 10 0 6 2 10
4 10 3 0 8 -4 11 -10z m1335 -2 c0 -4 -6 -27 -14 -50 -8 -24 -16 -52 -19 -63
-4 -15 -5 -14 -6 7 0 15 -6 30 -11 33 -7 4 -7 12 0 25 5 10 10 27 10 37 0 12
7 19 20 19 11 0 20 -4 20 -8z m-864 -29 c79 -74 69 -184 -22 -236 -47 -27 -87
-29 -134 -5 -101 50 -108 189 -14 254 42 28 134 21 170 -13z m-1209 -56 c39
-44 49 -61 41 -71 -8 -9 -7 -11 4 -7 13 5 14 -2 8 -40 -4 -25 -12 -51 -18 -57
-18 -18 -15 -28 7 -28 11 0 23 -5 27 -12 4 -7 3 -8 -5 -4 -6 4 -92 7 -191 6
-168 -1 -179 1 -173 17 3 10 11 24 17 32 6 7 11 23 11 35 1 11 5 53 9 92 8 69
8 71 36 71 16 0 27 -4 24 -9 -3 -4 0 -8 5 -8 6 0 11 5 11 10 0 6 15 10 33 11
17 1 43 5 57 9 41 13 43 12 97 -47z m591 17 c80 -49 65 -181 -23 -210 -51 -17
-99 -5 -129 31 -47 55 -42 124 10 170 40 34 95 38 142 9z m-305 3 c-40 -2
-106 -2 -145 0 -40 1 -8 3 72 3 80 0 112 -2 73 -3z m1967 -9 c0 -3 -12 -21
-26 -40 -17 -22 -40 -38 -66 -45 -53 -14 -59 -4 -20 32 18 16 32 34 32 39 0 8
19 13 68 19 6 0 12 -2 12 -5z m-2028 -19 c60 0 108 3 108 7 0 4 12 1 27 -7 15
-8 31 -11 36 -8 7 4 7 -1 3 -13 -11 -25 -13 -104 -4 -98 5 3 8 -2 8 -11 0 -10
-5 -13 -12 -9 -7 4 -8 3 -4 -5 4 -6 11 -9 15 -6 5 2 17 -5 27 -16 11 -12 28
-25 39 -30 11 -4 -68 -7 -183 -6 -127 1 -202 6 -201 12 1 6 5 9 10 8 5 -2 8 0
8 5 -1 4 -1 18 0 32 1 20 3 22 11 10 5 -8 10 -10 10 -4 0 6 -3 14 -7 18 -5 4
-8 26 -9 49 0 23 -4 52 -7 65 -4 16 -3 20 6 15 7 -4 60 -8 119 -8z m471 -8
c-3 -5 -2 -7 4 -4 12 8 63 -46 63 -68 0 -13 9 -16 53 -13 44 3 52 6 49 22 -2
10 1 15 7 12 5 -4 13 -1 17 5 5 8 3 9 -6 4 -8 -5 -11 -3 -8 6 3 8 11 13 17 11
7 -1 10 2 6 8 -11 18 15 41 35 30 9 -5 19 -8 21 -5 2 2 5 -18 5 -43 2 -63 8
-101 15 -96 3 2 17 -8 30 -22 13 -15 33 -30 44 -34 11 -5 -89 -9 -230 -9 -230
0 -248 1 -220 15 17 9 37 29 44 46 19 43 30 98 20 98 -5 0 -9 8 -9 18 0 10 -4
22 -10 28 -7 7 2 9 25 6 21 -3 32 -8 28 -15z m177 -7 c-18 -25 -28 -30 -64
-30 -34 0 -48 6 -71 30 l-29 30 93 0 92 0 -21 -30z m-20 -60 c0 -5 -15 -10
-34 -10 -19 0 -38 5 -41 10 -4 6 10 10 34 10 23 0 41 -4 41 -10z m1187 -62
c-3 -8 -6 -5 -6 6 -1 11 2 17 5 13 3 -3 4 -12 1 -19z m-2362 -58 c-3 -5 -13
-10 -21 -10 -8 0 -14 5 -14 10 0 6 9 10 21 10 11 0 17 -4 14 -10z m-558 -21
c6 -8 18 -43 27 -79 25 -99 79 -204 136 -264 48 -51 59 -77 42 -103 -4 -7 -82
-53 -172 -101 -137 -74 -165 -93 -167 -113 -2 -13 4 -33 12 -43 21 -28 30 -13
10 18 -16 24 -16 25 22 49 45 30 284 157 293 157 4 0 29 -25 55 -56 106 -121
317 -278 472 -350 177 -83 321 -115 544 -121 207 -6 320 8 482 61 187 61 327
149 489 304 94 91 108 101 117 85 6 -10 11 -13 11 -8 0 6 -5 16 -12 23 -10 10
-7 18 14 38 l26 27 129 -68 c70 -38 145 -79 166 -92 37 -24 38 -25 23 -48 -19
-28 -20 -35 -6 -35 5 0 16 13 25 30 14 28 14 31 -5 47 -11 10 -91 56 -178 103
-187 102 -192 109 -119 190 51 56 100 164 121 264 22 106 -6 99 358 95 175 -2
318 -6 318 -9 0 -3 -7 -37 -15 -75 -18 -85 -19 -208 -3 -287 14 -68 13 -68
-89 -118 -34 -17 -65 -35 -69 -41 -4 -6 5 -22 20 -35 14 -14 26 -29 26 -34 0
-6 5 -10 10 -10 18 0 11 20 -16 47 -14 14 -24 26 -22 28 7 6 67 35 73 35 3 0
4 -4 1 -8 -3 -5 -6 -36 -7 -70 l-2 -61 -26 14 c-42 22 -81 64 -81 87 0 19 19
97 26 107 7 9 104 10 104 2 0 -5 -16 -15 -35 -21 -36 -12 -48 -30 -20 -30 9 0
30 7 46 16 22 11 29 21 27 37 l-3 22 -380 0 c-349 0 -380 -1 -383 -17 -3 -16
64 -68 88 -68 22 0 8 20 -32 44 l-42 25 138 -2 138 -2 40 -118 c24 -71 38
-126 34 -140 -9 -34 -161 -203 -267 -295 -324 -287 -694 -432 -1144 -449 -508
-18 -960 150 -1313 490 -74 71 -201 210 -227 250 -17 27 -17 30 25 147 l42
120 139 0 c77 0 139 -2 139 -5 0 -2 -18 -14 -40 -25 -39 -20 -53 -40 -27 -40
24 0 88 51 85 68 -3 16 -37 17 -378 20 -215 1 -378 -2 -383 -7 -23 -23 24 -71
68 -71 26 0 16 18 -15 29 -43 15 -37 27 13 26 l44 0 12 -56 c7 -31 10 -65 7
-75 -6 -16 -84 -84 -97 -84 -3 0 -6 32 -7 70 l-2 70 41 -20 41 -21 -26 -24
c-14 -13 -26 -30 -26 -36 0 -7 16 2 35 21 19 19 35 37 35 42 0 4 -33 23 -72
43 -114 56 -113 54 -99 121 6 32 11 96 11 143 -1 78 -4 104 -25 196 l-6 30
313 4 c256 3 316 1 325 -10z m669 -18 c335 0 616 0 624 -1 8 0 -9 -23 -40 -55
-44 -45 -56 -52 -69 -43 -13 10 -14 10 -4 -2 10 -11 9 -18 -9 -37 l-21 -23 68
0 69 0 -36 -35 c-25 -24 -42 -33 -54 -29 -16 5 -16 4 -4 -5 12 -9 8 -18 -30
-56 -36 -37 -40 -45 -24 -45 11 0 30 -8 43 -17 14 -9 21 -12 18 -6 -5 7 9 12
37 15 l45 3 -65 -64 c-35 -35 -64 -68 -64 -73 0 -4 37 -8 82 -8 l81 0 -23 -25
c-35 -37 -11 -29 35 11 l40 36 -93 -4 c-50 -2 -92 0 -92 3 0 4 32 36 70 73
l70 66 -87 0 -88 0 90 91 90 90 -68 -3 c-37 -2 -67 -1 -67 2 0 3 30 35 68 72
41 40 78 68 95 71 28 4 28 3 -17 -42 -25 -26 -46 -49 -46 -51 0 -3 33 -4 72
-2 l73 3 -55 -58 c-30 -32 -71 -74 -91 -93 l-35 -35 90 3 91 2 -74 -69 -75
-70 88 -3 88 -3 -72 -62 c-65 -55 -78 -62 -119 -63 -79 -3 -331 -3 -436 0 -68
2 -122 -3 -169 -14 -52 -13 -89 -15 -148 -10 l-78 7 -109 113 c-138 145 -261
329 -285 427 -4 17 -11 25 -18 21 -7 -4 -8 -3 -4 5 6 8 12 9 20 2 8 -7 217
-11 622 -10z m1854 -5 c-1 -13 -36 -89 -81 -180 -69 -136 -107 -192 -210 -304
l-48 -52 -47 10 c-59 14 -258 14 -302 1 -61 -18 -166 -23 -262 -12 -52 6 -121
12 -153 13 l-57 2 27 27 c16 15 29 25 31 24 5 -4 72 70 72 79 0 3 -35 6 -77 6
l-76 0 23 25 c12 13 27 22 33 18 6 -3 7 -2 4 4 -3 5 9 25 28 43 19 19 35 37
35 40 0 4 -36 6 -80 6 l-79 -1 42 45 c23 24 61 63 84 87 l42 43 -55 0 c-41 0
-53 3 -48 13 5 8 2 7 -9 -2 -25 -20 -32 -6 -10 19 12 12 26 18 36 14 10 -3 17
-1 17 6 0 6 -5 8 -11 4 -7 -4 -10 -1 -7 7 3 8 18 16 33 19 38 7 1105 2 1105
-4z m384 -403 c-7 -16 -14 -45 -14 -65 0 -40 -1 -41 -22 -33 -9 4 -12 20 -10
55 3 41 7 50 22 50 11 0 22 5 25 10 13 22 13 8 -1 -17z m-3212 -40 c4 -44 -4
-62 -24 -63 -5 0 -8 18 -8 39 0 22 -3 46 -6 55 -4 11 0 16 14 16 17 0 21 -8
24 -47z m2450 -99 l27 -6 -30 -26 -31 -25 -95 18 c-106 20 -174 16 -225 -12
l-33 -18 80 -6 c44 -4 103 -10 132 -14 31 -5 64 -3 82 3 17 6 31 9 31 8 0 -2
-28 -22 -63 -45 -60 -39 -68 -41 -138 -41 -41 0 -111 -8 -156 -17 -77 -16 -87
-16 -192 1 -122 19 -184 15 -324 -24 -87 -24 -157 -25 -257 -4 -48 10 -101 14
-145 11 -68 -5 -73 -4 -145 36 l-75 42 65 6 c36 4 98 7 138 8 105 2 92 26 -29
52 -35 8 -62 6 -113 -5 -91 -22 -116 -20 -151 8 l-30 25 72 -6 c49 -4 100 0
163 12 73 14 109 16 178 9 48 -5 137 -8 197 -7 61 1 254 4 430 6 193 3 334 9
355 15 34 11 225 8 282 -4z m-195 -50 c-3 -3 -12 -4 -19 -1 -8 3 -5 6 6 6 11
1 17 -2 13 -5z m58 -22 c-3 -3 -11 0 -18 7 -9 10 -8 11 6 5 10 -3 15 -9 12
-12z m-85 -106 c0 -11 -159 -79 -236 -101 -139 -40 -203 -49 -374 -49 -185 -1
-307 20 -454 76 -80 31 -88 48 -21 47 25 0 27 -2 10 -8 -18 -7 -17 -8 7 -13
15 -3 31 -1 35 3 10 10 83 0 83 -11 0 -12 202 -4 233 9 16 6 33 8 39 5 6 -4 8
-2 5 3 -17 28 270 42 307 15 16 -12 124 -7 185 8 28 6 58 9 66 6 8 -3 15 -2
15 3 0 4 23 8 50 10 28 1 50 0 50 -3z"/>
<path d="M1986 4233 c-6 -14 -5 -15 5 -6 7 7 10 15 7 18 -3 3 -9 -2 -12 -12z"/>
<path d="M835 3980 c-3 -6 1 -7 9 -4 18 7 21 14 7 14 -6 0 -13 -4 -16 -10z"/>
<path d="M865 3920 c-8 -13 9 -20 24 -11 10 6 9 10 -3 14 -8 3 -18 2 -21 -3z"/>
<path d="M896 3882 c-2 -4 -1 -14 3 -21 6 -9 11 -10 15 -2 4 6 2 11 -4 11 -6
0 -8 5 -5 10 3 6 4 10 1 10 -3 0 -7 -4 -10 -8z"/>
<path d="M1425 3750 c-3 -6 1 -7 9 -4 18 7 21 14 7 14 -6 0 -13 -4 -16 -10z"/>
<path d="M2977 3619 c7 -7 15 -10 18 -7 3 3 -2 9 -12 12 -14 6 -15 5 -6 -5z"/>
<path d="M1298 3613 c12 -2 32 -2 45 0 12 2 2 4 -23 4 -25 0 -35 -2 -22 -4z"/>
<path d="M1458 3613 c12 -2 32 -2 45 0 12 2 2 4 -23 4 -25 0 -35 -2 -22 -4z"/>
<path d="M2010 3490 c0 -5 5 -10 11 -10 5 0 7 5 4 10 -3 6 -8 10 -11 10 -2 0
-4 -4 -4 -10z"/>
<path d="M1925 3270 c-3 -6 1 -7 9 -4 18 7 21 14 7 14 -6 0 -13 -4 -16 -10z"/>
<path d="M1945 3060 c-3 -5 -1 -10 4 -10 6 0 11 5 11 10 0 6 -2 10 -4 10 -3 0
-8 -4 -11 -10z"/>
<path d="M2216 2852 c-3 -5 1 -9 9 -9 8 0 12 4 9 9 -3 4 -7 8 -9 8 -2 0 -6 -4
-9 -8z"/>
<path d="M985 3390 c-8 -9 -15 -21 -15 -26 0 -12 -93 -69 -138 -85 -20 -7 -34
-20 -38 -35 -9 -34 14 -121 41 -152 12 -15 30 -50 39 -77 9 -28 32 -75 51
-104 19 -29 35 -64 35 -77 0 -14 -20 -66 -44 -117 -45 -92 -73 -180 -72 -226
1 -34 97 -91 157 -94 l43 -2 9 45 c5 25 14 48 19 51 10 7 149 1 156 -6 3 -2 7
-24 9 -50 5 -42 8 -45 35 -45 28 0 161 61 172 79 15 24 -35 190 -85 278 -36
65 -37 108 -4 153 13 18 34 57 46 86 12 29 26 51 30 49 4 -3 5 3 2 13 -2 11 6
32 21 49 31 37 51 125 35 154 -5 11 -22 24 -37 30 -46 17 -132 73 -132 85 0
31 -33 39 -176 40 -123 1 -146 -1 -159 -16z m310 -35 c0 -24 -7 -33 -31 -45
-26 -12 -36 -28 -55 -80 -12 -36 -32 -86 -44 -112 l-22 -48 -36 93 c-19 50
-38 100 -41 109 -5 18 -66 55 -66 40 0 -4 7 -17 15 -29 11 -15 12 -24 4 -29
-6 -3 -17 -20 -24 -38 l-14 -31 -7 32 c-3 18 -10 30 -15 27 -5 -3 -2 -21 6
-40 7 -18 11 -34 6 -34 -4 0 -14 -15 -23 -32 l-15 -33 -12 37 c-11 32 -10 42
9 77 11 23 24 41 28 41 12 0 35 62 33 87 -2 13 0 27 3 31 3 5 72 9 153 8 l148
-1 0 -30z m-326 -49 c-11 -24 -14 -25 -22 -10 -7 13 -5 21 8 31 25 17 28 11
14 -21z m381 -1 c0 -23 -18 -27 -29 -6 -18 32 -14 43 9 31 11 -6 20 -17 20
-25z m-425 -71 c-21 -34 -35 -35 -35 -3 0 10 -4 19 -10 19 -13 0 -13 -4 3 -43
12 -28 12 -36 -4 -61 l-17 -29 -4 77 c-2 61 0 75 11 71 7 -3 22 6 33 21 l20
25 12 -23 c10 -19 8 -28 -9 -54z m387 51 c13 -29 28 -28 44 4 l12 22 20 -25
c14 -18 25 -24 38 -19 14 5 16 2 11 -18 -4 -13 -7 -46 -7 -74 l0 -50 -19 25
c-17 21 -18 27 -5 44 16 23 19 60 4 51 -5 -3 -10 -15 -10 -26 0 -25 -17 -25
-25 0 -3 11 -13 25 -22 32 -10 9 -7 -4 11 -38 28 -57 31 -67 16 -58 -5 3 -10
-2 -10 -13 0 -33 -12 -32 -34 1 -20 29 -21 35 -9 64 15 38 16 43 4 43 -5 0
-11 -15 -15 -32 l-6 -33 -16 30 c-8 17 -22 37 -30 46 -8 8 -14 20 -14 25 0 5
4 3 9 -5 7 -11 10 -9 16 8 9 28 23 27 37 -4z m-246 -59 c5 -21 4 -27 -5 -22
-6 4 -11 16 -11 27 0 10 -4 19 -10 19 -13 0 -13 -10 4 -41 12 -23 11 -30 -9
-63 l-23 -38 -10 29 -10 28 -1 -27 c-1 -15 3 -30 9 -33 5 -3 3 -20 -7 -40 -18
-38 -33 -46 -33 -17 0 10 -5 23 -10 28 -8 8 2 35 31 90 61 117 69 123 85 60z
m214 -9 c0 -5 16 -35 35 -66 32 -52 34 -59 23 -89 -7 -17 -15 -32 -18 -32 -3
0 -13 14 -23 32 -12 22 -15 34 -7 42 5 5 10 21 9 36 -1 25 -1 25 -7 2 -10 -33
-19 -32 -43 7 -14 24 -17 37 -10 44 6 6 11 22 10 37 -1 22 -2 21 -10 -9 -13
-43 -23 -33 -15 15 l7 36 25 -23 c13 -12 24 -27 24 -32z m-440 3 c0 -22 1 -43
2 -47 1 -5 5 -23 9 -41 6 -27 5 -31 -6 -22 -17 14 -40 112 -32 134 12 30 27
16 27 -24z m633 -11 c-1 -45 -19 -106 -28 -97 -11 10 8 149 19 145 6 -2 10
-24 9 -48z m-373 -78 c0 -28 -15 -19 -23 14 -4 15 -5 14 -6 -7 0 -15 3 -29 9
-33 5 -3 2 -20 -8 -40 -19 -39 -32 -45 -32 -16 0 11 -4 23 -10 26 -13 8 -13
-21 0 -44 7 -13 4 -29 -10 -56 -12 -23 -21 -33 -24 -24 -14 46 -14 68 3 100
10 18 31 58 46 88 26 50 29 53 41 36 8 -11 14 -30 14 -44z m120 44 c0 -10 -25
-60 -33 -66 -5 -4 2 -26 17 -51 22 -39 24 -48 15 -82 l-10 -37 -23 33 c-16 23
-20 38 -14 50 4 9 8 27 8 40 -1 17 -5 12 -15 -17 -13 -36 -12 -42 6 -72 18
-29 19 -37 8 -68 -11 -30 -18 -35 -39 -33 -17 2 -26 10 -28 26 -2 12 -8 22
-13 22 -15 0 -11 15 15 53 l25 36 -20 41 c-11 22 -17 46 -13 52 4 6 13 -4 21
-22 16 -39 22 -35 53 43 13 31 27 57 32 57 4 0 8 -2 8 -5z m-300 -69 c8 -8
-19 -75 -31 -76 -18 0 -19 71 -2 102 17 33 17 33 21 8 2 -14 7 -29 12 -34z
m349 -19 c39 -71 41 -85 24 -137 -3 -10 -11 -3 -24 22 -15 29 -17 43 -9 63 13
33 13 45 0 45 -5 0 -10 -10 -10 -23 0 -38 -11 -39 -30 -2 -14 28 -15 40 -6 69
6 20 12 36 13 36 1 0 20 -33 42 -73z m150 14 c-1 -9 -4 -29 -8 -46 l-6 -30
-20 35 c-19 32 -19 38 -7 64 14 28 15 28 28 11 8 -10 13 -26 13 -34z m-479
-123 c-17 -29 -19 -29 -29 -10 -14 27 -14 36 5 80 l15 37 14 -39 c12 -34 11
-41 -5 -68z m159 -5 c-11 -22 -20 -31 -23 -22 -15 48 -15 72 0 101 l16 32 13
-37 c11 -33 10 -42 -6 -74z m287 52 c3 -12 0 -34 -6 -50 l-11 -29 -18 31 c-16
26 -17 35 -7 67 10 33 12 35 24 19 7 -10 15 -27 18 -38z m-411 -37 c-3 -7 1
-24 8 -38 11 -21 11 -29 -1 -48 -14 -21 -15 -21 -28 -5 -18 24 -17 54 2 81 17
24 26 29 19 10z m81 -14 c1 -14 11 -35 21 -47 27 -30 24 -61 -5 -65 -23 -4
-23 -3 -6 23 9 14 14 28 11 31 -3 3 -13 -9 -22 -27 l-17 -33 -14 30 -14 29 4
-27 c2 -22 -1 -28 -15 -28 -11 0 -19 2 -19 5 0 13 67 135 74 135 0 0 2 -12 2
-26z m218 -38 c20 -35 36 -67 36 -70 0 -3 -9 -6 -20 -6 -17 0 -19 5 -14 25 4
15 2 25 -5 25 -6 0 -11 -11 -11 -25 0 -14 -3 -25 -7 -25 -14 1 -40 68 -32 82
5 7 9 23 9 36 0 12 2 22 4 22 2 0 20 -29 40 -64z m70 25 c13 -25 13 -30 -3
-55 l-18 -27 -16 24 c-10 15 -12 28 -6 34 5 5 10 21 11 35 3 31 13 28 32 -11z
m-114 -93 c0 -9 -13 -10 -33 -2 -9 3 -12 14 -9 31 l5 26 18 -24 c10 -13 19
-27 19 -31z m-45 -40 c1 -26 -2 -28 -40 -28 -38 0 -41 2 -39 28 1 15 3 28 3
30 1 2 18 2 38 0 32 -3 37 -6 38 -30z m-95 -3 c0 -24 -3 -25 -55 -25 -52 0
-55 1 -55 25 0 24 3 25 55 25 52 0 55 -1 55 -25z m222 0 c-4 -23 -9 -25 -58
-25 -51 0 -54 1 -54 25 0 24 3 25 59 25 57 0 58 -1 53 -25z m18 -60 c9 -17 9
-28 1 -41 -9 -16 -10 -17 -11 -3 0 9 -9 27 -20 40 -25 30 -25 23 -1 -23 15
-31 16 -43 8 -72 l-11 -34 -18 29 c-13 21 -17 42 -13 72 5 42 5 42 -6 8 l-10
-34 -17 34 c-19 38 -34 41 -42 7 l-6 -22 -17 24 -18 25 -19 -22 c-10 -13 -21
-23 -23 -23 -3 0 -7 10 -9 23 -4 31 -20 26 -40 -13 -17 -34 -23 -31 -30 15 -5
31 -29 24 -49 -14 -15 -28 -19 -31 -25 -17 -4 10 -1 28 6 40 12 23 15 23 185
23 169 0 174 -1 185 -22z m-299 -62 c7 -7 6 -14 -1 -18 -6 -4 -16 -19 -21 -33
l-11 -27 -13 30 c-9 21 -14 24 -14 12 -1 -10 3 -26 8 -35 6 -11 3 -28 -9 -49
-18 -33 -30 -34 -30 -1 0 10 -4 18 -10 18 -12 0 -12 -2 0 -36 6 -15 8 -35 5
-45 -7 -21 -31 -25 -38 -6 -3 9 -8 9 -16 1 -9 -8 0 -16 36 -32 26 -11 60 -23
75 -27 24 -6 28 -4 33 22 14 65 59 181 87 226 26 41 33 46 46 35 23 -19 88
-165 103 -231 12 -57 13 -58 43 -51 17 4 50 15 75 26 34 14 42 21 33 30 -9 9
-15 7 -26 -7 -13 -18 -14 -18 -25 4 -9 16 -10 31 -2 51 6 18 6 32 0 35 -5 4
-9 -2 -9 -13 0 -33 -12 -32 -31 3 -15 28 -17 40 -8 62 21 52 32 73 39 73 10 0
30 -48 30 -70 0 -11 4 -20 8 -20 8 0 32 -65 32 -85 0 -4 -16 23 -36 61 -35 68
-54 96 -54 80 0 -12 73 -148 88 -164 21 -23 10 -45 -33 -69 -46 -27 -113 -49
-121 -41 -3 4 -8 25 -10 48 -6 52 -46 159 -81 219 l-26 44 -23 -39 c-31 -50
-61 -130 -81 -215 -16 -65 -17 -66 -42 -59 -14 4 -52 20 -84 36 -50 25 -57 31
-55 56 1 15 8 28 15 28 7 0 13 5 13 11 0 6 28 61 63 122 56 100 62 109 65 82
2 -16 8 -35 13 -42z m51 -25 c-14 -29 -16 -30 -24 -12 -6 15 -7 13 -4 -10 2
-17 -8 -57 -26 -100 -34 -83 -48 -102 -48 -63 0 15 -5 27 -11 27 -7 0 -9 -10
-5 -25 5 -19 3 -23 -9 -19 -21 8 -20 14 21 86 20 34 52 94 72 133 34 66 36 68
43 42 5 -18 2 -38 -9 -59z m142 54 c8 -15 12 -40 9 -56 l-6 -29 -17 33 c-14
27 -17 80 -4 80 2 0 10 -12 18 -28z m-282 -63 c-30 -51 -42 -33 -20 28 11 30
14 32 24 18 10 -13 9 -23 -4 -46z m226 -12 c10 -19 29 -59 40 -90 l22 -57 -81
0 -81 0 6 28 c8 31 63 152 69 152 3 0 14 -15 25 -33z m117 -39 c20 -39 45 -84
56 -99 20 -28 20 -28 0 -39 -19 -10 -20 -8 -14 21 4 23 3 30 -5 25 -7 -4 -12
-14 -12 -22 0 -9 -8 -23 -17 -32 -16 -16 -16 -16 -11 0 4 9 -5 49 -20 90 -23
61 -31 128 -17 128 2 0 20 -32 40 -72z m-395 -40 c-12 -24 -19 -32 -16 -18 4
14 9 38 13 53 4 19 9 25 16 18 6 -6 2 -24 -13 -53z m126 -104 c-4 -9 -9 -15
-11 -12 -3 3 -3 13 1 22 4 9 9 15 11 12 3 -3 3 -13 -1 -22z"/>
<path d="M1017 3373 c-17 -17 -5 -45 25 -57 28 -12 37 -25 63 -96 16 -45 34
-83 39 -84 5 0 22 36 39 82 26 71 34 85 63 98 36 17 45 48 18 58 -9 4 -20 3
-23 0 -3 -4 0 -9 7 -11 21 -8 13 -22 -20 -36 -27 -11 -35 -23 -58 -91 l-26
-78 -28 80 c-25 74 -31 82 -62 92 -31 11 -47 30 -24 30 6 0 10 5 10 10 0 11
-13 13 -23 3z"/>
<path d="M1000 2588 c0 -7 5 -20 10 -28 8 -12 10 -9 10 13 0 15 -4 27 -10 27
-5 0 -10 -6 -10 -12z"/>
<path d="M1270 2573 c0 -22 2 -25 10 -13 13 20 13 40 0 40 -5 0 -10 -12 -10
-27z"/>
<path d="M1555 2875 c0 -275 1 -386 2 -247 2 139 2 364 0 500 -1 136 -2 22 -2
-253z"/>
<path d="M827 3326 c-4 -10 -1 -13 8 -9 8 3 12 9 9 14 -7 12 -11 11 -17 -5z"/>
<path d="M1500 3131 c0 -6 4 -13 10 -16 6 -3 7 1 4 9 -7 18 -14 21 -14 7z"/>
<path d="M900 2880 c-8 -5 -12 -12 -9 -15 4 -3 12 1 19 10 14 17 11 19 -10 5z"/>
<path d="M1392 2766 c7 -8 15 -12 17 -11 5 6 -10 25 -20 25 -5 0 -4 -6 3 -14z"/>
<path d="M836 2623 c-6 -14 -5 -15 5 -6 7 7 10 15 7 18 -3 3 -9 -2 -12 -12z"/>
<path d="M1417 2419 c7 -7 15 -10 18 -7 3 3 -2 9 -12 12 -14 6 -15 5 -6 -5z"/>
<path d="M1200 2401 c0 -6 4 -13 10 -16 6 -3 7 1 4 9 -7 18 -14 21 -14 7z"/>
<path d="M895 2390 c-3 -6 1 -7 9 -4 18 7 21 14 7 14 -6 0 -13 -4 -16 -10z"/>
<path d="M2936 3398 c3 -5 10 -6 15 -3 13 9 11 12 -6 12 -8 0 -12 -4 -9 -9z"/>
<path d="M3077 3233 c-4 -3 -7 -22 -7 -42 -1 -20 -16 -105 -34 -188 l-33 -153
38 0 38 0 3 193 c3 214 4 199 -5 190z m-7 -263 l0 -110 -26 0 c-17 0 -24 5
-22 13 3 6 14 56 24 110 10 53 20 97 21 97 2 0 3 -49 3 -110z"/>
<path d="M3131 3207 c-1 -11 15 -85 34 -165 19 -81 37 -157 40 -169 4 -15 13
-23 28 -23 22 0 22 -1 -3 -20 -58 -45 -168 -49 -246 -10 -44 23 -48 24 -38 9
3 -6 25 -20 48 -30 84 -38 218 -18 271 41 18 19 17 20 -12 20 l-29 0 -46 183
c-25 100 -46 174 -47 164z"/>
<path d="M3175 3191 c-3 -5 0 -13 6 -17 7 -4 9 -3 5 4 -3 5 0 13 6 15 9 4 10
6 1 6 -6 1 -14 -3 -18 -8z"/>
<path d="M2511 2974 c0 -11 3 -14 6 -6 3 7 2 16 -1 19 -3 4 -6 -2 -5 -13z"/>
<path d="M2949 2448 c-5 -19 -8 -50 -4 -46 7 7 15 48 9 48 -2 0 -4 -1 -5 -2z"/>
<path d="M3363 3105 c0 -8 4 -12 9 -9 5 3 6 10 3 15 -9 13 -12 11 -12 -6z"/>
<path d="M2981 3144 c0 -11 3 -14 6 -6 3 7 2 16 -1 19 -3 4 -6 -2 -5 -13z"/>
<path d="M2130 2656 c0 -2 7 -7 16 -10 8 -3 12 -2 9 4 -6 10 -25 14 -25 6z"/>
<path d="M612 2440 c-43 -41 -50 -45 -41 -22 6 15 20 35 32 44 l22 17 -23 -6
c-28 -7 -44 -41 -66 -138 -9 -38 -26 -83 -38 -99 -11 -16 -27 -48 -35 -70
l-13 -41 6 65 c3 40 13 75 25 92 23 33 25 45 3 27 -29 -24 -44 -68 -44 -129 0
-47 -6 -73 -30 -120 -16 -33 -30 -63 -30 -67 1 -12 70 100 70 112 0 6 17 17
38 24 68 24 98 50 131 110 18 34 27 62 22 66 -6 3 -19 -16 -31 -42 -26 -59
-45 -80 -93 -105 -45 -22 -54 -19 -36 14 38 74 74 118 105 128 30 10 44 27 44
53 0 7 -8 2 -18 -9 -20 -25 -62 -49 -62 -36 0 28 35 85 77 125 26 25 45 48 42
51 -3 3 -28 -17 -57 -44z"/>
<path d="M515 1991 c-3 -5 -2 -12 3 -15 5 -3 9 1 9 9 0 17 -3 19 -12 6z"/>
<path d="M1043 2039 c-2 -23 3 -25 10 -4 4 8 3 16 -1 19 -4 3 -9 -4 -9 -15z"/>
<path d="M1060 2020 c-6 -11 -8 -20 -6 -20 3 0 10 9 16 20 6 11 8 20 6 20 -3
0 -10 -9 -16 -20z"/>
<path d="M2143 1995 c0 -8 4 -12 9 -9 5 3 6 10 3 15 -9 13 -12 11 -12 -6z"/>
<path d="M1959 1998 c-6 -21 -5 -37 2 -32 5 3 7 9 4 14 -3 4 1 11 7 13 10 4
10 6 1 6 -7 1 -13 0 -14 -1z"/>
<path d="M1710 1968 c0 -11 12 -10 30 2 12 7 10 9 -8 7 -12 0 -22 -5 -22 -9z"/>
<path d="M1240 1720 c6 -11 13 -20 16 -20 2 0 0 9 -6 20 -6 11 -13 20 -16 20
-2 0 0 -9 6 -20z"/>
<path d="M2941 1644 c0 -11 3 -14 6 -6 3 7 2 16 -1 19 -3 4 -6 -2 -5 -13z"/>
<path d="M2931 1573 c7 -12 15 -20 18 -17 3 2 -3 12 -13 22 -17 16 -18 16 -5
-5z"/>
<path d="M2900 1544 c0 -6 7 -19 16 -30 14 -18 14 -18 3 6 -14 31 -19 36 -19
24z"/>
<path d="M1145 2060 c-3 -5 1 -10 9 -10 9 0 16 5 16 10 0 6 -4 10 -9 10 -6 0
-13 -4 -16 -10z"/>
<path d="M2210 2080 c0 -29 1 -30 50 -30 49 0 50 1 50 30 0 29 -1 30 -50 30
-49 0 -50 -1 -50 -30z m87 5 c0 -11 -11 -15 -39 -15 -27 0 -38 4 -38 15 0 11
11 15 38 15 28 0 39 -4 39 -15z"/>
<path d="M2320 2079 l0 -30 52 3 c49 3 53 5 55 31 2 26 1 27 -53 27 -54 0 -54
0 -54 -31z m90 6 c0 -10 -10 -15 -34 -15 -21 0 -36 6 -40 15 -4 12 3 15 34 15
29 0 40 -4 40 -15z"/>
<path d="M2440 2080 c0 -29 1 -30 50 -30 49 0 50 1 50 30 0 29 -1 30 -50 30
-49 0 -50 -1 -50 -30z m90 5 c0 -11 -11 -15 -40 -15 -29 0 -40 4 -40 15 0 11
11 15 40 15 29 0 40 -4 40 -15z"/>
<path d="M2560 2080 c0 -29 1 -30 50 -30 49 0 50 1 50 30 0 29 -1 30 -50 30
-49 0 -50 -1 -50 -30z m87 5 c0 -11 -11 -15 -39 -15 -27 0 -38 4 -38 15 0 11
11 15 38 15 28 0 39 -4 39 -15z"/>
<path d="M610 1764 c0 -8 -13 -20 -30 -25 -16 -6 -30 -15 -30 -20 0 -10 47 6
67 23 15 12 17 38 3 38 -5 0 -10 -7 -10 -16z"/>
<path d="M566 1675 c-9 -26 -7 -32 5 -12 6 10 9 21 6 23 -2 3 -7 -2 -11 -11z"/>
<path d="M2423 1992 l-61 -3 -6 -37 c-8 -57 -5 -110 8 -120 6 -5 22 -8 36 -7
14 2 44 4 68 4 l42 1 0 79 c0 55 -4 80 -12 82 -7 2 -41 3 -75 1z m67 -82 l0
-70 -60 0 -60 0 0 58 0 58 43 0 42 -1 3 -47 c4 -69 22 -59 22 12 0 33 2 60 5
60 3 0 5 -31 5 -70z"/>
<path d="M2237 1983 c-9 -9 -9 -85 1 -98 4 -5 26 -25 50 -43 l42 -33 0 91 0
90 -43 0 c-24 0 -47 -3 -50 -7z m83 -73 l0 -70 -35 22 c-29 20 -35 29 -35 61
0 33 3 37 24 37 21 0 25 -5 29 -37 3 -35 4 -34 5 10 3 73 12 56 12 -23z"/>
<path d="M2530 1901 l0 -90 50 37 c50 37 51 37 48 87 l-3 50 -47 3 -48 3 0
-90z m86 5 c-3 -11 -21 -31 -41 -44 l-35 -22 0 60 0 60 31 0 c29 0 31 -2 27
-30 -3 -16 -1 -30 4 -30 4 0 9 17 9 38 1 25 3 29 6 13 3 -12 2 -33 -1 -45z"/>
<path d="M2742 1858 c-23 -23 -14 -38 24 -38 31 0 35 3 32 23 -3 25 -36 35
-56 15z m46 -16 c2 -7 -6 -12 -17 -12 -21 0 -27 11 -14 24 9 9 26 2 31 -12z"/>
<path d="M2073 1843 c-7 -2 -13 -16 -13 -29 0 -20 5 -24 29 -24 36 0 46 13 31
40 -11 20 -23 23 -47 13z m37 -23 c0 -5 -9 -10 -20 -10 -11 0 -20 5 -20 10 0
6 9 10 20 10 11 0 20 -4 20 -10z"/>
<path d="M122 1808 c3 -7 24 -24 48 -38 23 -14 49 -35 58 -47 14 -22 13 -23
-11 -23 -14 0 -29 5 -32 10 -3 6 -12 10 -18 10 -20 -1 34 -40 54 -40 11 0 35
-18 55 -40 20 -22 39 -38 42 -36 2 3 -9 20 -25 39 -16 18 -40 61 -52 96 -13
34 -32 66 -42 72 -13 6 -19 6 -19 -1 0 -5 4 -10 10 -10 5 0 14 -9 20 -20 9
-17 3 -15 -41 10 -28 17 -49 25 -47 18z"/>
<path d="M297 1690 c20 -18 33 -56 31 -92 -1 -10 -2 -18 -3 -18 -1 0 -25 7
-53 15 -41 12 -59 25 -81 56 -16 22 -32 35 -35 30 -4 -5 11 -28 31 -49 35 -37
90 -62 134 -62 9 0 22 -7 29 -15 7 -8 16 -12 21 -9 5 3 0 15 -11 26 -11 12
-20 35 -20 51 0 43 -27 86 -54 87 -6 0 0 -9 11 -20z"/>
<path d="M2664 1696 c-26 -26 -34 -42 -34 -70 0 -51 23 -90 64 -110 44 -21 64
-20 104 4 104 63 61 210 -61 210 -31 0 -46 -7 -73 -34z m126 9 c89 -46 54
-185 -47 -185 -90 1 -135 108 -70 167 39 36 73 41 117 18z"/>
<path d="M2705 1650 c-24 -27 -13 -68 22 -76 34 -9 57 6 61 42 6 49 -49 72
-83 34z m70 -21 c9 -28 -16 -53 -44 -44 -20 6 -29 43 -14 58 15 15 52 6 58
-14z"/>
<path d="M1615 1599 c-4 -6 -4 -13 -1 -16 3 -4 6 -1 6 7 0 10 4 10 18 -1 15
-13 16 -12 3 4 -16 20 -18 20 -26 6z"/>
<path d="M2096 1639 c-34 -40 -33 -64 3 -100 33 -33 50 -35 90 -14 48 24 56
81 16 120 -35 35 -76 33 -109 -6z m107 -11 c9 -11 17 -29 17 -39 0 -27 -36
-59 -67 -59 -62 0 -85 71 -36 109 30 24 58 20 86 -11z"/>
<path d="M2122 1618 c-27 -27 -6 -68 35 -68 29 0 48 33 33 60 -12 22 -49 27
-68 8z m56 -26 c4 -28 -24 -40 -45 -19 -14 13 -14 19 -3 32 18 22 44 15 48
-13z"/>
<path d="M3800 1630 c-9 -6 -10 -10 -3 -10 6 0 15 5 18 10 8 12 4 12 -15 0z"/>
<path d="M2333 1612 c15 -10 25 -21 22 -24 -3 -2 2 -5 12 -5 11 0 8 7 -13 24
-16 12 -33 23 -39 23 -5 0 2 -8 18 -18z"/>
<path d="M2300 1541 c0 -6 4 -13 10 -16 6 -3 7 1 4 9 -7 18 -14 21 -14 7z"/>
<path d="M140 1436 c0 -2 8 -10 18 -17 15 -13 16 -12 3 4 -13 16 -21 21 -21
13z"/>
<path d="M505 1410 c-4 -6 -10 -8 -15 -5 -5 3 -11 1 -14 -4 -8 -13 22 -7 36 7
7 7 9 12 6 12 -4 0 -10 -5 -13 -10z"/>
<path d="M613 1405 c7 -7 14 -10 17 -6 3 3 9 9 13 12 4 4 -3 7 -17 7 -19 0
-22 -3 -13 -13z"/>
<path d="M730 1409 c0 -5 -4 -8 -9 -4 -5 3 -12 1 -15 -4 -4 -5 2 -8 11 -7 15
3 33 26 19 26 -3 0 -6 -5 -6 -11z"/>
<path d="M3437 1409 c7 -7 15 -10 18 -7 3 3 -2 9 -12 12 -14 6 -15 5 -6 -5z"/>
<path d="M170 1386 c0 -2 7 -7 16 -10 8 -3 12 -2 9 4 -6 10 -25 14 -25 6z"/>
<path d="M3830 1380 c-9 -6 -10 -10 -3 -10 6 0 15 5 18 10 8 12 4 12 -15 0z"/>
<path d="M220 1369 c0 -5 -13 -15 -30 -20 -22 -8 -30 -17 -30 -36 0 -19 4 -24
23 -21 21 3 22 0 25 -79 l3 -83 29 0 c17 0 30 5 31 13 0 6 1 63 2 125 l2 112
-27 0 c-16 0 -28 -5 -28 -11z m35 -114 c0 -77 -3 -105 -12 -105 -9 0 -13 23
-13 80 0 79 0 80 -25 80 -14 0 -25 5 -25 10 0 6 9 10 20 10 11 0 23 7 26 15 4
8 11 15 18 15 7 0 11 -33 11 -105z"/>
<path d="M300 1347 l0 -32 47 4 c39 3 45 1 37 -10 -17 -21 -54 -127 -54 -153
0 -19 5 -23 32 -22 30 1 33 4 40 44 4 24 19 68 33 99 14 30 25 66 25 79 0 23
-2 24 -80 24 l-80 0 0 -33z m140 1 c0 -6 -9 -30 -20 -53 -11 -23 -26 -65 -32
-93 -8 -32 -18 -52 -27 -52 -19 0 -8 48 26 119 15 31 29 60 31 65 3 5 -18 7
-47 4 -39 -4 -51 -2 -51 8 0 10 16 14 60 14 40 0 60 -4 60 -12z"/>
<path d="M491 1361 c-41 -41 -39 -187 2 -216 33 -23 80 -19 108 11 21 22 24
34 23 100 -1 64 -5 79 -25 100 -28 30 -81 32 -108 5z m96 -13 c27 -34 21 -170
-8 -189 -26 -17 -73 -5 -87 21 -16 31 -11 142 7 164 16 19 74 21 88 4z"/>
<path d="M521 1336 c-7 -9 -11 -42 -9 -87 2 -57 7 -74 21 -83 29 -17 47 17 47
87 0 84 -27 122 -59 83z m39 -71 c0 -57 -7 -85 -21 -85 -10 0 -13 133 -3 143
15 15 24 -7 24 -58z"/>
<path d="M678 1362 c-9 -9 -23 -23 -32 -30 -20 -16 -9 -45 15 -39 17 5 19 -2
19 -77 l0 -82 35 -2 36 -3 -2 126 -1 125 -27 -1 c-14 0 -34 -8 -43 -17z m52
-107 c0 -87 -3 -105 -15 -105 -12 0 -15 16 -15 80 0 79 0 80 -25 80 -14 0 -25
5 -25 10 0 6 8 10 19 10 10 0 24 7 31 15 25 30 30 13 30 -90z"/>
<path d="M3362 1340 c-7 -11 -21 -20 -32 -20 -15 0 -20 -7 -20 -25 0 -20 5
-25 25 -25 25 0 25 -1 25 -80 l0 -80 29 0 c36 0 37 9 33 153 -3 92 -4 97 -25
97 -12 0 -28 -9 -35 -20z m43 -105 c0 -87 -3 -105 -15 -105 -12 0 -14 14 -12
80 l4 80 -28 0 -27 0 34 24 c19 13 36 25 39 25 3 1 5 -46 5 -104z"/>
<path d="M3485 1349 c-11 -7 -23 -17 -27 -23 -11 -16 -10 -64 2 -71 7 -4 5
-14 -5 -28 -55 -79 68 -167 132 -93 27 31 29 62 8 93 -10 14 -12 24 -5 28 14
9 13 58 -3 78 -15 22 -76 31 -102 16z m76 -19 c25 -14 26 -65 2 -79 -17 -9
-16 -11 5 -26 46 -34 18 -99 -43 -99 -61 0 -89 65 -42 99 20 15 21 17 5 26
-11 6 -18 22 -18 39 0 43 46 63 91 40z"/>
<path d="M3505 1314 c-17 -17 -18 -25 -9 -48 8 -21 50 -21 58 0 15 40 -21 76
-49 48z m27 -39 c-12 -22 -27 -2 -18 22 5 12 10 13 17 6 7 -7 8 -17 1 -28z"/>
<path d="M3494 1206 c-9 -38 4 -66 31 -66 18 0 26 7 31 24 10 41 1 61 -28 64
-22 3 -29 -2 -34 -22z m46 -21 c0 -16 -6 -25 -15 -25 -9 0 -15 9 -15 25 0 16
6 25 15 25 9 0 15 -9 15 -25z"/>
<path d="M3813 1336 c-26 -23 -28 -29 -27 -99 0 -88 17 -122 63 -129 66 -10
91 24 91 124 0 70 -3 82 -25 103 -31 32 -66 32 -102 1z m81 -2 c23 -9 39 -79
31 -136 -9 -60 -40 -88 -81 -70 -29 14 -44 48 -44 102 0 86 36 126 94 104z"/>
<path d="M3846 1314 c-16 -16 -23 -124 -10 -158 8 -22 41 -20 54 3 16 31 13
137 -6 155 -8 9 -17 16 -19 16 -2 0 -11 -7 -19 -16z m32 -90 c-2 -38 -7 -69
-13 -69 -11 0 -19 119 -10 143 13 34 26 -8 23 -74z"/>
<path d="M3626 1319 c-3 -17 -6 -49 -6 -70 0 -36 2 -39 29 -39 16 0 31 6 34
13 8 20 29 -8 25 -34 -4 -29 -24 -36 -30 -11 -8 31 -52 24 -56 -9 -4 -34 26
-59 71 -61 55 -2 77 23 77 87 0 59 -19 85 -63 85 -15 0 -27 5 -27 10 0 6 20
10 45 10 41 0 45 2 45 25 0 24 -2 25 -69 25 l-68 0 -7 -31z m117 5 c1 -4 -16
-8 -38 -8 -37 -1 -40 -3 -43 -33 -3 -31 -3 -31 37 -26 37 5 41 3 51 -22 23
-61 -19 -123 -74 -109 -36 9 -62 54 -32 54 8 0 18 -9 21 -20 8 -26 41 -26 55
-1 14 27 13 54 -4 77 -13 16 -18 17 -35 7 -12 -7 -25 -13 -31 -13 -9 0 -15 92
-6 101 8 7 96 2 99 -7z"/>
<path d="M635 1160 c3 -5 8 -10 11 -10 2 0 4 5 4 10 0 6 -5 10 -11 10 -5 0 -7
-4 -4 -10z"/>
<path d="M3266 1113 c-6 -14 -5 -15 5 -6 7 7 10 15 7 18 -3 3 -9 -2 -12 -12z"/>
<path d="M370 1106 c0 -2 8 -10 18 -17 15 -13 16 -12 3 4 -13 16 -21 21 -21
13z"/>
<path d="M595 1101 c-3 -5 -2 -12 3 -15 5 -3 9 1 9 9 0 17 -3 19 -12 6z"/>
<path d="M3926 1093 c-6 -14 -5 -15 5 -6 7 7 10 15 7 18 -3 3 -9 -2 -12 -12z"/>
<path d="M961 887 c-8 -10 -7 -19 4 -33 14 -18 15 -18 9 0 -7 17 -5 17 27 2
24 -12 29 -13 16 -2 -14 10 -15 15 -5 19 7 3 2 5 -12 4 -15 -1 -24 3 -22 11 3
16 -3 15 -17 -1z"/>
<path d="M809 791 c-94 -89 -94 -89 -75 -110 25 -27 29 -27 68 8 l32 28 35
-24 c19 -13 41 -21 48 -18 7 3 21 8 31 12 9 4 -9 -22 -41 -57 l-58 -64 26 -25
25 -25 39 44 c33 38 41 42 46 27 5 -11 -2 -29 -19 -51 -14 -19 -26 -39 -26
-45 0 -11 49 -47 53 -40 1 2 12 19 25 36 12 18 27 44 32 58 5 14 16 25 24 25
20 0 56 48 56 75 0 12 -9 34 -20 47 -10 14 -16 28 -12 32 3 4 -1 4 -9 1 -9 -3
-23 3 -34 15 -22 24 -34 25 -50 3 -10 -14 -11 -12 -8 13 4 23 -4 39 -37 77
-23 26 -45 47 -50 47 -4 0 -50 -40 -101 -89z m136 32 c48 -53 44 -92 -13 -122
-24 -13 -26 -12 -88 34 -10 7 -23 1 -47 -23 -24 -23 -36 -29 -44 -21 -8 8 12
33 71 90 44 43 82 79 83 79 2 0 18 -17 38 -37z m163 -173 c5 -32 -35 -71 -65
-64 -24 6 -30 -5 -13 -22 6 -6 0 -24 -19 -52 -24 -37 -30 -41 -41 -28 -10 13
-8 21 14 47 31 37 32 50 5 75 -21 19 -21 19 -55 -21 -25 -31 -36 -37 -45 -28
-9 9 6 31 62 96 l74 85 40 -33 c22 -18 41 -42 43 -55z"/>
<path d="M880 789 l-35 -30 24 -20 c30 -24 43 -24 66 1 15 16 17 26 9 47 -13
36 -24 37 -64 2z m50 -13 c0 -22 -29 -41 -42 -28 -8 8 -8 15 2 27 16 19 40 20
40 1z"/>
<path d="M1011 669 c-26 -35 -16 -59 25 -59 36 0 53 43 29 70 -24 26 -27 26
-54 -11z m49 -19 c0 -21 -29 -35 -43 -21 -11 11 1 34 14 25 5 -3 9 -2 8 3 -3
17 1 24 11 18 6 -3 10 -14 10 -25z"/>
<path d="M3470 876 c0 -2 8 -10 18 -17 15 -13 16 -12 3 4 -13 16 -21 21 -21
13z"/>
<path d="M3107 789 l-57 -51 72 -82 c39 -44 80 -90 89 -100 17 -18 19 -18 75
32 31 28 62 48 68 45 6 -3 0 6 -13 20 -31 34 -38 34 -74 0 -28 -28 -29 -28
-43 -8 -14 18 -12 22 18 47 l33 27 -22 23 -23 22 -30 -29 c-26 -25 -32 -27
-40 -15 -14 22 -13 27 20 50 29 21 30 22 12 45 -9 14 -19 24 -22 24 -3 0 -31
-23 -63 -50z m73 12 c0 -5 -14 -21 -32 -34 l-31 -25 24 -30 25 -29 28 23 c27
24 46 31 46 17 0 -5 -13 -19 -29 -33 l-30 -25 28 -32 27 -33 36 30 c20 17 39
26 42 21 4 -5 -15 -27 -40 -47 l-47 -38 -44 49 c-24 28 -57 66 -73 87 l-30 36
42 36 c42 36 58 44 58 27z"/>
<path d="M1090 770 c-9 -6 -10 -10 -3 -10 6 0 15 5 18 10 8 12 4 12 -15 0z"/>
<path d="M1120 760 c-12 -7 -10 -9 7 -7 12 0 19 5 17 9 -6 10 -6 10 -24 -2z"/>
<path d="M665 729 c-4 -6 -5 -12 -2 -15 2 -3 7 2 10 11 7 17 1 20 -8 4z"/>
<path d="M2995 691 c-57 -37 -78 -58 -72 -73 4 -11 -1 -14 -18 -10 -22 4 -41
-6 -153 -73 -10 -6 -22 -13 -29 -18 -8 -5 -1 -31 28 -92 42 -91 47 -115 25
-115 -7 0 -32 43 -56 95 -24 52 -44 95 -45 95 -1 0 -16 -7 -33 -15 l-30 -16
45 -97 c24 -53 52 -103 61 -109 45 -35 142 10 142 65 0 15 -14 56 -30 91 -17
35 -29 65 -27 67 1 2 23 -35 47 -81 25 -47 50 -85 55 -85 6 0 21 7 33 16 l23
16 -26 43 c-30 52 -30 55 -7 55 9 -1 29 -19 45 -41 28 -41 30 -41 76 -11 14
10 5 26 -52 85 -15 16 -27 38 -25 49 2 14 15 3 53 -46 28 -36 52 -65 55 -66 3
0 29 21 58 46 36 32 52 53 52 70 0 32 -38 84 -62 84 -11 0 -18 7 -18 19 0 24
-44 71 -67 71 -10 0 -31 -9 -48 -19z m80 -21 c12 -13 15 -27 11 -45 -6 -22 -3
-25 21 -25 33 0 63 -26 63 -55 0 -21 -69 -95 -88 -95 -7 0 -26 23 -115 141
l-27 37 42 31 c49 36 68 38 93 11z m-148 -88 c18 -11 34 -60 23 -67 -18 -11
-11 -33 8 -28 13 3 26 -7 45 -35 22 -34 24 -42 12 -52 -12 -10 -18 -5 -32 24
-19 42 -56 57 -80 34 -13 -14 -12 -20 7 -58 17 -33 19 -45 10 -54 -8 -7 -14
-7 -16 -1 -2 6 -27 50 -54 99 -28 49 -50 92 -50 95 0 10 74 49 95 50 11 0 25
-3 32 -7z m-90 -238 c7 -43 -28 -76 -77 -72 -33 3 -37 8 -71 78 -50 103 -55
123 -34 118 10 -2 31 -36 51 -83 42 -96 45 -99 78 -91 35 9 34 32 -10 128 -29
65 -34 82 -23 89 11 6 22 -10 47 -64 19 -39 36 -86 39 -103z"/>
<path d="M2997 645 c-18 -13 -18 -15 4 -44 25 -34 36 -35 56 -5 11 17 10 23
-3 42 -17 25 -31 27 -57 7z m50 -21 c3 -8 1 -20 -6 -27 -8 -8 -15 -6 -25 8 -8
11 -12 23 -10 27 9 14 34 9 41 -8z"/>
<path d="M3057 565 c-18 -13 -18 -15 9 -49 l28 -35 23 21 c28 26 29 40 5 61
-22 20 -41 21 -65 2z m58 -30 c0 -11 -7 -20 -15 -20 -8 0 -14 6 -12 13 1 6 -1
11 -5 11 -17 -3 -24 2 -18 12 12 18 50 6 50 -16z"/>
<path d="M2851 551 c-14 -9 -9 -35 13 -64 28 -36 78 14 53 53 -12 21 -42 26
-66 11z m56 -45 c-9 -22 -24 -20 -38 5 -9 17 -8 23 2 30 18 11 44 -14 36 -35z"/>
<path d="M1217 689 c7 -7 15 -10 18 -7 3 3 -2 9 -12 12 -14 6 -15 5 -6 -5z"/>
<path d="M2905 690 c-3 -6 1 -7 9 -4 18 7 21 14 7 14 -6 0 -13 -4 -16 -10z"/>
<path d="M2934 678 l-19 -23 23 19 c12 11 22 21 22 23 0 8 -8 2 -26 -19z"/>
<path d="M790 620 c0 -5 -8 -7 -17 -4 -17 5 -17 5 0 -6 9 -6 15 -15 12 -21 -4
-5 2 -6 11 -2 10 4 13 8 7 10 -7 3 -9 11 -6 19 3 8 2 14 -1 14 -3 0 -6 -4 -6
-10z"/>
<path d="M1130 604 c-42 -35 -90 -121 -90 -161 0 -41 48 -83 95 -83 27 0 41 9
74 46 80 91 86 163 19 204 -43 26 -60 25 -98 -6z m99 -20 c38 -31 38 -41 5
-106 -49 -96 -102 -123 -151 -76 -33 31 -29 66 16 135 53 82 78 91 130 47z"/>
<path d="M1140 523 c-46 -72 -51 -113 -14 -113 18 0 96 118 92 140 -2 8 -13
16 -25 18 -18 3 -30 -8 -53 -45z m60 22 c0 -9 -38 -78 -53 -97 -14 -17 -37
-25 -37 -12 0 16 66 114 77 114 7 0 13 -2 13 -5z"/>
<path d="M2831 614 c0 -11 3 -14 6 -6 3 7 2 16 -1 19 -3 4 -6 -2 -5 -13z"/>
<path d="M1295 410 c-32 -65 -57 -121 -55 -123 3 -1 17 -8 33 -15 26 -11 28
-10 49 32 20 41 22 43 49 33 42 -16 78 1 102 47 18 35 19 41 6 65 -12 21 -99
80 -119 81 -3 0 -32 -54 -65 -120z m158 42 c35 -39 -7 -109 -60 -100 -15 3
-36 8 -45 13 -14 5 -21 -2 -35 -32 -10 -21 -18 -40 -20 -42 -1 -2 -9 -1 -18 2
-12 5 -6 25 37 111 l52 104 35 -18 c20 -10 44 -27 54 -38z"/>
<path d="M1360 430 l-21 -40 26 -10 c33 -12 54 -3 66 29 9 21 7 29 -11 43 -31
25 -37 23 -60 -22z m49 -21 c-18 -35 -43 -20 -27 17 9 18 14 21 24 13 10 -8
11 -16 3 -30z"/>
<path d="M866 512 c-3 -5 1 -9 9 -9 8 0 12 4 9 9 -3 4 -7 8 -9 8 -2 0 -6 -4
-9 -8z"/>
<path d="M2545 480 c3 -5 8 -10 11 -10 2 0 4 5 4 10 0 6 -5 10 -11 10 -5 0 -7
-4 -4 -10z"/>
<path d="M1513 465 c0 -8 4 -12 9 -9 5 3 6 10 3 15 -9 13 -12 11 -12 -6z"/>
<path d="M2485 430 c-50 -16 -115 -34 -145 -40 -30 -6 -60 -14 -67 -18 -9 -6
-6 -36 13 -127 13 -66 28 -122 32 -126 4 -4 40 0 80 9 71 15 85 27 64 58 -8
13 -64 25 -56 13 3 -5 -4 -9 -14 -9 -11 0 -22 8 -25 19 -3 15 4 21 34 30 39
12 49 30 31 58 -6 9 -17 10 -41 3 -36 -10 -51 -6 -51 14 0 14 131 49 141 38 4
-4 19 -47 34 -95 26 -87 27 -89 53 -82 15 3 30 10 35 14 4 4 -6 47 -23 96 -16
49 -30 92 -30 96 0 4 11 10 24 13 19 5 22 11 18 31 -2 14 -7 27 -11 29 -4 3
-47 -8 -96 -24z m85 -10 c0 -5 -12 -13 -26 -16 -18 -5 -23 -11 -19 -23 4 -9
20 -53 36 -99 24 -70 26 -84 13 -89 -8 -3 -16 -4 -18 -2 -1 2 -16 47 -33 99
-21 68 -34 94 -44 91 -27 -7 -38 -6 -39 4 -1 6 22 17 52 27 64 19 78 21 78 8z
m-165 -50 c3 -5 -12 -12 -35 -16 -48 -8 -52 -12 -44 -53 7 -31 8 -32 50 -25
57 8 59 -12 3 -21 -41 -7 -41 -7 -34 -43 9 -50 11 -52 48 -41 43 12 59 11 55
-3 -2 -6 -30 -17 -61 -23 l-56 -11 -17 75 c-9 42 -20 91 -25 110 -4 19 -7 36
-6 37 5 4 83 22 99 23 9 1 20 -3 23 -9z"/>
<path d="M936 441 c-3 -5 2 -15 12 -22 15 -12 16 -12 5 2 -7 9 -10 19 -6 22 3
4 4 7 0 7 -3 0 -8 -4 -11 -9z"/>
<path d="M1459 346 c-41 -58 -77 -102 -81 -100 -4 3 -5 -2 -2 -10 3 -8 19 -19
36 -25 26 -9 33 -8 44 7 7 9 14 20 14 24 0 4 12 2 26 -4 18 -9 24 -17 20 -32
-7 -26 10 -46 39 -46 27 0 32 17 41 162 l7 104 -27 12 c-15 7 -31 12 -36 12
-4 0 -41 -47 -81 -104z m122 59 c0 -6 -3 -59 -7 -118 -6 -92 -9 -107 -23 -105
-11 3 -15 12 -13 31 2 22 -3 29 -35 42 -35 15 -39 15 -50 -1 -7 -10 -13 -21
-13 -25 0 -4 -9 -5 -19 -2 -17 4 -10 17 50 103 60 85 73 98 90 92 11 -5 20
-12 20 -17z"/>
<path d="M1513 348 c-29 -48 -31 -54 -16 -65 30 -23 53 -16 53 15 0 15 3 44 6
65 4 20 3 37 -2 37 -5 0 -24 -24 -41 -52z m13 -55 c-11 -11 -17 4 -9 23 7 18
8 18 11 1 2 -10 1 -21 -2 -24z"/>
<path d="M3116 422 c-3 -5 1 -9 9 -9 8 0 12 4 9 9 -3 4 -7 8 -9 8 -2 0 -6 -4
-9 -8z"/>
<path d="M1614 394 c-4 -15 -3 -29 2 -31 37 -13 38 -19 15 -113 -25 -96 -23
-108 19 -112 24 -3 26 2 50 94 24 95 25 97 51 91 21 -4 28 -1 33 13 5 20 -1
-85 -10 -172 l-6 -51 33 -7 c18 -3 34 -4 37 -1 3 2 7 27 10 55 6 62 26 62 30
-1 4 -53 16 -69 51 -69 26 0 27 1 24 60 -1 34 -5 65 -8 69 -3 5 2 22 10 37 14
28 15 24 15 -69 l0 -98 68 3 c61 3 67 5 70 26 2 12 10 23 18 24 8 0 19 1 26 2
7 1 15 -10 18 -24 3 -14 11 -25 18 -24 7 1 23 2 36 2 l25 2 -15 50 c-8 28 -12
56 -8 62 4 6 3 8 -3 5 -5 -3 -20 26 -33 68 l-24 75 -38 0 c-42 0 -38 8 -69
-135 l-17 -80 -1 108 -1 108 -32 -3 c-29 -3 -33 -7 -37 -38 l-4 -35 -6 30 c-8
40 -43 56 -114 53 -31 -2 -57 0 -57 3 0 3 -33 13 -72 24 -40 10 -78 20 -85 22
-7 3 -15 -7 -19 -23z m154 -43 c3 -10 -3 -11 -26 -6 -34 7 -28 19 -66 -128
-17 -67 -17 -68 -33 -59 -9 6 -6 32 12 102 24 95 23 109 -12 110 -7 0 -13 6
-13 14 0 11 11 11 67 -3 37 -9 69 -23 71 -30z m168 -26 c17 -22 17 -26 4 -59
-5 -14 -16 -26 -25 -26 -19 0 -20 -16 0 -24 11 -4 15 -20 15 -56 0 -38 -4 -50
-15 -50 -11 0 -15 12 -15 50 0 51 -4 56 -45 62 -17 3 -21 -4 -25 -47 -4 -39
-9 -51 -24 -53 -16 -3 -18 1 -13 30 3 18 9 71 12 118 l7 86 55 -6 c38 -4 60
-12 69 -25z m86 -100 c-3 -108 -4 -115 -24 -115 -14 0 -18 5 -14 16 3 9 6 60
6 115 0 88 2 99 18 99 15 0 17 -11 14 -115z m165 10 c37 -116 38 -125 18 -125
-9 0 -18 13 -22 31 -4 21 -10 28 -20 25 -8 -4 -28 -6 -44 -6 -24 0 -29 -4 -29
-25 0 -17 -5 -25 -18 -25 -17 0 -17 7 7 115 24 112 26 116 50 113 23 -3 29
-14 58 -103z"/>
<path d="M1840 295 c0 -19 -1 -38 -2 -42 -2 -5 9 -9 24 -11 18 -2 31 4 42 20
9 12 16 26 16 30 0 15 -33 38 -56 38 -21 0 -24 -5 -24 -35z m52 9 c12 -11 -5
-44 -22 -44 -13 0 -16 6 -12 25 4 23 21 33 34 19z"/>
<path d="M2116 283 c-4 -21 -9 -50 -12 -65 -5 -27 -4 -28 31 -28 26 0 36 4 32
13 -2 6 -10 36 -17 65 -8 28 -17 52 -21 52 -4 0 -10 -17 -13 -37z m27 -53 c3
-12 0 -20 -8 -20 -8 0 -11 8 -8 20 3 11 7 20 8 20 1 0 5 -9 8 -20z"/>
<path d="M1226 356 c5 -13 4 -17 -4 -12 -8 5 -10 2 -5 -10 6 -15 7 -15 16 1 6
11 5 21 -3 28 -8 9 -9 7 -4 -7z"/>
<path d="M2970 356 c0 -2 7 -7 16 -10 8 -3 12 -2 9 4 -6 10 -25 14 -25 6z"/>
<path d="M1184 276 c1 -8 5 -18 8 -22 4 -3 5 1 4 10 -1 8 -5 18 -8 22 -4 3 -5
-1 -4 -10z"/>
<path d="M2240 241 c0 -6 4 -13 10 -16 6 -3 7 1 4 9 -7 18 -14 21 -14 7z"/>
<path d="M1330 220 c0 -5 6 -10 13 -10 9 0 9 -2 -1 -9 -11 -7 -10 -9 3 -14 9
-4 14 -3 10 2 -3 5 -1 11 5 13 6 2 1 9 -10 16 -12 7 -20 8 -20 2z"/>
<path d="M1731 174 c0 -11 3 -14 6 -6 3 7 2 16 -1 19 -3 4 -6 -2 -5 -13z"/>
<path d="M2625 171 c-3 -5 -2 -12 3 -15 5 -3 9 1 9 9 0 17 -3 19 -12 6z"/>
<path d="M1965 1240 c-4 -6 -11 -7 -17 -4 -7 4 -8 2 -4 -5 6 -9 11 -9 22 0 14
11 18 19 10 19 -3 0 -8 -5 -11 -10z"/>
<path d="M1866 1148 c3 -5 10 -6 15 -3 13 9 11 12 -6 12 -8 0 -12 -4 -9 -9z"/>
<path d="M1843 1125 c0 -8 4 -12 9 -9 5 3 6 10 3 15 -9 13 -12 11 -12 -6z"/>
<path d="M1016 1088 c3 -5 10 -6 15 -3 13 9 11 12 -6 12 -8 0 -12 -4 -9 -9z"/>
<path d="M1950 1060 c-8 -5 -12 -12 -9 -15 4 -3 12 1 19 10 14 17 11 19 -10 5z"/>
<path d="M1095 1001 c-3 -5 -2 -12 3 -15 5 -3 9 1 9 9 0 17 -3 19 -12 6z"/>
<path d="M1504 924 c-18 -14 -18 -15 4 -4 12 6 22 13 22 15 0 8 -5 6 -26 -11z"/>
<path d="M1184 919 c-3 -6 -2 -15 3 -20 5 -5 9 -1 9 11 0 23 -2 24 -12 9z"/>
<path d="M2199 1293 l-24 -28 28 24 c25 23 32 31 24 31 -2 0 -14 -12 -28 -27z"/>
<path d="M2216 1281 c-4 -5 -2 -12 3 -15 5 -4 12 -2 15 3 4 5 2 12 -3 15 -5 4
-12 2 -15 -3z"/>
<path d="M3125 1249 c-4 -6 -5 -12 -2 -15 2 -3 7 2 10 11 7 17 1 20 -8 4z"/>
<path d="M2214 1148 l-19 -23 23 19 c21 18 27 26 19 26 -2 0 -12 -10 -23 -22z"/>
<path d="M2195 1110 c-3 -6 1 -7 9 -4 18 7 21 14 7 14 -6 0 -13 -4 -16 -10z"/>
<path d="M2970 1016 c0 -3 9 -10 19 -16 15 -7 22 -7 27 2 4 7 4 10 -1 6 -4 -4
-16 -3 -26 3 -11 5 -19 7 -19 5z"/>
<path d="M2397 919 c7 -7 15 -10 18 -7 3 3 -2 9 -12 12 -14 6 -15 5 -6 -5z"/>
<path d="M2015 854 c-62 -13 -106 -28 -115 -39 -8 -9 16 -14 108 -19 156 -10
177 -9 226 13 l41 19 -50 2 c-27 0 -79 7 -115 15 -36 8 -67 14 -70 13 -3 0
-14 -2 -25 -4z"/>
<path d="M1651 778 c-19 -5 -43 -15 -53 -22 -16 -12 -8 -14 59 -20 43 -3 106
-9 141 -12 47 -5 74 -2 107 11 50 19 59 34 17 27 -15 -2 -58 4 -95 12 -76 18
-125 19 -176 4z m156 -24 c-3 -3 -12 -4 -19 -1 -8 3 -5 6 6 6 11 1 17 -2 13
-5z"/>
<path d="M2350 774 c-36 -8 -77 -13 -92 -11 -43 6 -16 -18 38 -33 30 -9 65
-10 107 -5 34 4 94 11 132 15 l70 6 -40 18 c-54 25 -136 28 -215 10z"/>
<path d="M1553 743 c4 -3 1 -13 -6 -22 -11 -14 -10 -14 5 -2 16 12 16 31 1 31
-4 0 -3 -3 0 -7z"/>
<path d="M1130 4696 c0 -2 8 -10 18 -17 15 -13 16 -12 3 4 -13 16 -21 21 -21
13z"/>
<path d="M3326 3993 c-6 -14 -5 -15 5 -6 7 7 10 15 7 18 -3 3 -9 -2 -12 -12z"/>
<path d="M3725 2769 c-4 -6 -5 -12 -2 -15 2 -3 7 2 10 11 7 17 1 20 -8 4z"/>
<path d="M3080 270 c-9 -6 -10 -10 -3 -10 6 0 15 5 18 10 8 12 4 12 -15 0z"/>
</g>
</svg>
